<?xml version="1.0" encoding="utf-8"?>
<!-- Generator: Adobe Illustrator 24.1.1, SVG Export Plug-In . SVG Version: 6.00 Build 0)  -->
<svg version="1.1" id="Layer_1" xmlns="http://www.w3.org/2000/svg" xmlns:xlink="http://www.w3.org/1999/xlink" x="0px" y="0px"
	 viewBox="0 0 247 192.7" style="enable-background:new 0 0 247 192.7;" xml:space="preserve">
<style type="text/css">
	.st0{opacity:0.27;fill:#A8CFEF;}
	.st1{fill:#323232;}
</style>
<path class="st0" d="M168.4,86.3c-5.7-41.4-25.8-56.5-46.6-60.3C118,15.5,109.1,4.1,88.5,0.6c-0.5-0.1-1-0.2-1.5-0.2
	C76.8-0.5-22.1-6.9,4.6,84.8c1.4,4.7,2.9,9,4.5,13c0.4,10.1,3.4,21.8,10,35.5c43.4,90.8,117.7,20.5,119,19.3c0,0,0,0,0,0
	C158,145.1,174,127.1,168.4,86.3z"/>
<path class="st0" d="M245.8,99.4C240.1,58,220,42.9,199.3,39c-3.8-10.4-12.7-21.8-33.3-25.3c-0.5-0.1-1-0.2-1.5-0.2
	C154.2,12.6,55.3,6.2,82,97.9c1.4,4.7,2.9,9,4.5,13c0.4,10.1,3.4,21.8,10,35.5c43.4,90.8,117.7,20.5,119,19.3c0,0,0,0,0,0
	C235.4,158.2,251.5,140.2,245.8,99.4z"/>
<g>
	<g>
		<g>
			<path class="st1" d="M71.8,118.4V60.5h34.3V71H84.4v15.3H103v10.4H84.4v21.7H71.8z"/>
			<path class="st1" d="M115.4,60.5H128v57.9h-12.6V60.5z"/>
			<path class="st1" d="M149.8,71H137V60.5h38.1V71h-12.7v47.5h-12.6V71z"/>
		</g>
		<rect x="59.3" y="48" class="st1" width="12.5" height="12.5"/>
		<rect x="59.3" y="118.4" class="st1" width="12.5" height="12.5"/>
		<rect x="175.1" y="48" class="st1" width="12.5" height="12.5"/>
		<rect x="175.1" y="118.4" class="st1" width="12.5" height="12.5"/>
	</g>
	<g>
		<path class="st1" d="M59.3,135.5h2.4v0.6h-1.6v3.3h1.5v0.6h-1.5v4.5h-0.8V135.5z"/>
		<path class="st1" d="M63,135.5h0.8v8.4h1.6v0.6H63V135.5z"/>
		<path class="st1" d="M68.6,135.5h0.8v6.7c0,0.8-0.1,1.5-0.3,1.8c-0.2,0.3-0.7,0.6-1.2,0.6c-0.6,0-1-0.2-1.2-0.6
			c-0.2-0.3-0.3-1-0.3-1.8v-6.7h0.8v6.6c0,0.6,0,1,0.1,1.2c0.1,0.3,0.3,0.6,0.7,0.6c0.3,0,0.6-0.1,0.7-0.2c0.1-0.2,0.2-0.7,0.2-1.6
			v-6.6H68.6z"/>
		<path class="st1" d="M72.8,135.5h0.8v6.8c0,0.8-0.1,1.4-0.3,1.7c-0.2,0.3-0.6,0.6-1.1,0.6c-0.6,0-0.9-0.1-1.1-0.5
			c-0.2-0.3-0.3-0.9-0.3-1.6v-0.8h0.8v1c0,0.5,0,0.8,0.1,0.9c0.1,0.1,0.2,0.2,0.2,0.2c0.1,0,0.1,0,0.2,0c0.3,0,0.6-0.2,0.6-0.7
			c0-0.2,0-0.3,0-0.6v-7.2H72.8z"/>
		<path class="st1" d="M75.1,138c0-1.1,0.1-1.8,0.5-2.2c0.2-0.3,0.7-0.5,1.2-0.5s0.9,0.2,1.1,0.6c0.1,0.2,0.2,0.6,0.2,0.9
			c0,0.3,0,0.7,0,1.2v3.9c0,0.8,0,1.4-0.1,1.6c-0.1,0.3-0.2,0.6-0.3,0.7c-0.2,0.2-0.6,0.5-1.1,0.5c-0.8,0-1.2-0.3-1.4-0.9
			c-0.1-0.5-0.2-1-0.2-1.8v-4H75.1z M77.5,137.8c0-0.7,0-1.2-0.1-1.5c-0.1-0.3-0.3-0.5-0.7-0.5c-0.3,0-0.6,0.1-0.7,0.5
			c-0.1,0.3-0.2,0.8-0.2,1.5v3.9c0,0.8,0,1.4,0.1,1.6c0.1,0.2,0.2,0.3,0.2,0.5c0.1,0.1,0.2,0.1,0.5,0.1c0.1,0,0.3,0,0.5-0.1
			c0.1-0.1,0.2-0.2,0.2-0.5c0.1-0.2,0.1-0.8,0.1-1.6v-3.9H77.5z"/>
		<path class="st1" d="M81.8,135.5h0.8v9h-0.8V135.5z"/>
		<path class="st1" d="M87.2,135.5h0.6v9h-0.6l-2-6.7v2.4v4.3h-0.7v-9H85l2.2,6.9l-0.1-3.1v-3.9H87.2z"/>
		<path class="st1" d="M88.9,135.5h2.5v0.6h-0.8v8.4h-0.8V136h-0.9V135.5z"/>
		<path class="st1" d="M92.6,135.5H95v0.6h-1.6v3.5h1.5v0.6h-1.5v3.6H95v0.6h-2.4V135.5z"/>
		<path class="st1" d="M96.3,135.5h1.5c0.6,0,1,0.1,1.2,0.3c0.1,0.2,0.2,0.5,0.3,0.7c0,0.2,0.1,0.7,0.1,1.2s-0.1,1-0.2,1.2
			c-0.1,0.3-0.3,0.6-0.7,0.7c0.1,0,0.2,0,0.3,0.1c0.1,0,0.1,0.1,0.2,0.2c0.2,0.3,0.3,1.4,0.3,2.8c0,0.7,0,1,0,1.1
			c0,0.1,0,0.2,0.1,0.3h-0.8c0-0.1-0.1-0.3-0.1-0.6c0-0.2,0-0.7,0-1.4v-1c0-0.6,0-1-0.1-1.1c-0.1-0.1-0.3-0.2-0.7-0.2h-0.8v4.4h-0.8
			C96.3,144.4,96.3,135.5,96.3,135.5z M98.6,137.6c0-0.5,0-0.8-0.1-1c0-0.2-0.1-0.3-0.2-0.5c-0.1-0.1-0.2-0.1-0.5-0.1H97v3.4h0.8
			c0.2,0,0.5,0,0.6-0.1c0.1-0.1,0.1-0.2,0.2-0.5C98.6,138.8,98.6,138.3,98.6,137.6L98.6,137.6z"/>
		<path class="st1" d="M100.9,138.1c0-1.1,0.1-1.8,0.5-2.2c0.2-0.3,0.7-0.6,1.1-0.6s0.9,0.1,1.1,0.3c0.1,0.2,0.2,0.3,0.3,0.6
			c0.1,0.5,0.1,1,0.1,1.8v0.8h-0.8V138c0-0.8,0-1.2-0.1-1.5c-0.1-0.2-0.2-0.5-0.3-0.5c-0.1,0-0.2,0-0.2,0c-0.3,0-0.6,0.1-0.7,0.5
			c-0.1,0.3-0.2,0.8-0.2,1.6v3.6c0,0.9,0,1.5,0.1,1.8c0.1,0.3,0.3,0.5,0.7,0.5c0.3,0,0.6-0.1,0.7-0.5c0.1-0.3,0.1-0.9,0.1-1.8V141
			h0.8v0.7c0,0.8,0,1.4-0.1,1.7c-0.1,0.3-0.2,0.6-0.3,0.8c-0.2,0.3-0.6,0.5-1.1,0.5c-0.6,0-0.9-0.1-1.1-0.5
			c-0.3-0.3-0.5-1.2-0.5-2.4C100.9,141.8,100.9,138.1,100.9,138.1z"/>
		<path class="st1" d="M105.4,138c0-1.1,0.1-1.8,0.5-2.2c0.2-0.3,0.7-0.5,1.2-0.5c0.6,0,0.9,0.2,1.1,0.6c0.1,0.2,0.2,0.6,0.2,0.9
			c0,0.3,0,0.7,0,1.2v3.9c0,0.8,0,1.4-0.1,1.6c-0.1,0.3-0.2,0.6-0.3,0.7c-0.2,0.2-0.6,0.5-1.1,0.5c-0.8,0-1.2-0.3-1.4-0.9
			c-0.1-0.5-0.2-1-0.2-1.8v-4H105.4z M107.8,137.8c0-0.7,0-1.2-0.1-1.5c-0.1-0.3-0.3-0.5-0.7-0.5c-0.3,0-0.6,0.1-0.7,0.5
			c-0.1,0.3-0.2,0.8-0.2,1.5v3.9c0,0.8,0,1.4,0.1,1.6c0.1,0.2,0.2,0.3,0.2,0.5c0.1,0.1,0.2,0.1,0.5,0.1c0.1,0,0.3,0,0.5-0.1
			c0.1-0.1,0.2-0.2,0.2-0.5c0.1-0.2,0.1-0.8,0.1-1.6v-3.9H107.8z"/>
		<path class="st1" d="M110.1,138c0-1.1,0.1-1.8,0.5-2.2c0.2-0.3,0.7-0.5,1.2-0.5c0.6,0,0.9,0.2,1.1,0.6c0.1,0.2,0.2,0.6,0.2,0.9
			c0,0.3,0,0.7,0,1.2v3.9c0,0.8,0,1.4-0.1,1.6c-0.1,0.3-0.2,0.6-0.3,0.7c-0.2,0.2-0.6,0.5-1.1,0.5c-0.8,0-1.2-0.3-1.4-0.9
			c-0.1-0.5-0.2-1-0.2-1.8v-4H110.1z M112.5,137.8c0-0.7,0-1.2-0.1-1.5c-0.1-0.3-0.3-0.5-0.7-0.5s-0.6,0.1-0.7,0.5
			c-0.1,0.3-0.2,0.8-0.2,1.5v3.9c0,0.8,0,1.4,0.1,1.6c0.1,0.2,0.2,0.3,0.2,0.5c0.1,0.1,0.2,0.1,0.5,0.1c0.1,0,0.3,0,0.5-0.1
			c0.1-0.1,0.2-0.2,0.2-0.5c0.1-0.2,0.1-0.8,0.1-1.6v-3.9H112.5z"/>
		<path class="st1" d="M114.9,135.5h1.6c0.3,0,0.7,0.1,0.9,0.2c0.2,0.1,0.3,0.3,0.5,0.5c0.1,0.3,0.2,0.6,0.2,0.9c0,0.3,0,0.7,0,1
			v0.1c0,0.8,0,1.4-0.1,1.6c-0.1,0.3-0.2,0.6-0.3,0.7c-0.2,0.3-0.6,0.5-1.1,0.5h-0.8v3.5h-0.8C114.9,144.4,114.9,135.5,114.9,135.5z
			 M117.1,138.2V138c0-0.7,0-1.1-0.1-1.4c-0.1-0.2-0.3-0.5-0.6-0.5h-0.8v4.2h0.8c0.3,0,0.6-0.1,0.7-0.5
			C117.1,139.6,117.1,139,117.1,138.2z"/>
		<path class="st1" d="M119.3,135.5h2.4v0.6h-1.6v3.5h1.5v0.6h-1.5v3.6h1.6v0.6h-2.4V135.5z"/>
		<path class="st1" d="M122.9,135.5h1.5c0.6,0,1,0.1,1.2,0.3c0.1,0.2,0.2,0.5,0.3,0.7c0,0.2,0.1,0.7,0.1,1.2s-0.1,1-0.2,1.2
			c-0.1,0.3-0.3,0.6-0.7,0.7c0.1,0,0.2,0,0.3,0.1c0.1,0,0.1,0.1,0.2,0.2c0.2,0.3,0.3,1.4,0.3,2.8c0,0.7,0,1,0,1.1
			c0,0.1,0,0.2,0.1,0.3h-0.8c0-0.1-0.1-0.3-0.1-0.6c0-0.2,0-0.7,0-1.4v-1c0-0.6,0-1-0.1-1.1c0-0.1-0.2-0.2-0.7-0.2h-0.8v4.4h-0.8
			V135.5z M125.3,137.6c0-0.5,0-0.8-0.1-1c0-0.2-0.1-0.3-0.2-0.5c-0.1-0.1-0.2-0.1-0.5-0.1h-0.8v3.4h0.8c0.2,0,0.5,0,0.6-0.1
			c0.1-0.1,0.1-0.2,0.2-0.5C125.3,138.8,125.3,138.3,125.3,137.6L125.3,137.6z"/>
		<path class="st1" d="M128.6,135.5h0.8l1.6,9h-0.7l-0.3-1.8h-1.8l-0.2,1.8h-0.7L128.6,135.5z M129.8,141.9l-0.8-5.1l0,0l-0.8,5.1
			H129.8z"/>
		<path class="st1" d="M131.4,135.5h2.5v0.6h-0.8v8.4h-0.8V136h-0.9C131.4,136,131.4,135.5,131.4,135.5z"/>
		<path class="st1" d="M135.2,135.5h0.8v9h-0.8V135.5z"/>
		<path class="st1" d="M140.4,135.5h0.7l-1.5,9h-0.8l-1.6-9h0.7l1.2,7.4l0,0L140.4,135.5z"/>
		<path class="st1" d="M142.2,138c0-1.1,0.1-1.8,0.5-2.2c0.2-0.3,0.7-0.5,1.2-0.5s0.9,0.2,1.1,0.6c0.1,0.2,0.2,0.6,0.2,0.9
			c0,0.3,0,0.7,0,1.2v3.9c0,0.8,0,1.4-0.1,1.6c-0.1,0.3-0.2,0.6-0.3,0.7c-0.2,0.2-0.6,0.5-1.1,0.5c-0.8,0-1.2-0.3-1.4-0.9
			c-0.1-0.5-0.2-1-0.2-1.8v-4H142.2z M144.6,137.8c0-0.7,0-1.2-0.1-1.5c-0.1-0.3-0.3-0.5-0.7-0.5c-0.3,0-0.6,0.1-0.7,0.5
			c-0.1,0.3-0.2,0.8-0.2,1.5v3.9c0,0.8,0,1.4,0.1,1.6c0.1,0.2,0.2,0.3,0.2,0.5c0.1,0.1,0.2,0.1,0.5,0.1c0.1,0,0.3,0,0.5-0.1
			s0.2-0.2,0.2-0.5c0.1-0.2,0.1-0.8,0.1-1.6v-3.9H144.6z"/>
		<path class="st1" d="M148.8,135.5h1.4c0.8,0,1.4,0.3,1.6,1c0.1,0.3,0.2,0.9,0.2,1.6v3.9c0,0.9-0.1,1.6-0.3,1.9
			c-0.2,0.3-0.7,0.6-1.4,0.6h-1.4v-9H148.8z M151.2,138c0-0.7-0.1-1.1-0.2-1.4c-0.1-0.3-0.3-0.5-0.7-0.5h-0.7v7.7h0.6
			c0.5,0,0.7-0.2,0.8-0.6c0.1-0.3,0.1-0.8,0.1-1.4L151.2,138z"/>
		<path class="st1" d="M153.6,135.5h2.4v0.6h-1.6v3.5h1.5v0.6h-1.5v3.6h1.6v0.6h-2.4V135.5z"/>
		<path class="st1" d="M158.6,135.5h2.5v0.6h-0.8v8.4h-0.8V136h-0.9V135.5z"/>
		<path class="st1" d="M162.2,135.5h1.5c0.6,0,1,0.1,1.2,0.3c0.1,0.2,0.2,0.5,0.3,0.7c0,0.2,0.1,0.7,0.1,1.2s-0.1,1-0.2,1.2
			c-0.1,0.3-0.3,0.6-0.7,0.7c0.1,0,0.2,0,0.3,0.1c0.1,0,0.1,0.1,0.2,0.2c0.2,0.3,0.3,1.4,0.3,2.8c0,0.7,0,1,0,1.1
			c0,0.1,0,0.2,0.1,0.3h-0.8c0-0.1-0.1-0.3-0.1-0.6c0-0.2,0-0.7,0-1.4v-1c0-0.6,0-1-0.1-1.1c-0.1-0.1-0.3-0.2-0.7-0.2H163v4.4h-0.8
			C162.2,144.4,162.2,135.5,162.2,135.5z M164.6,137.6c0-0.5,0-0.8-0.1-1c0-0.2-0.1-0.3-0.2-0.5c-0.1-0.1-0.2-0.1-0.5-0.1H163v3.4
			h0.8c0.2,0,0.5,0,0.6-0.1c0.1-0.1,0.1-0.2,0.2-0.5C164.5,138.8,164.6,138.3,164.6,137.6L164.6,137.6z"/>
		<path class="st1" d="M167.8,135.5h0.8l1.6,9h-0.7l-0.3-1.8h-1.8l-0.2,1.8h-0.7L167.8,135.5z M169,141.9l-0.8-5.1l0,0l-0.8,5.1H169
			z"/>
		<path class="st1" d="M171.4,135.5h1.4c0.6,0,0.9,0.1,1.1,0.2c0.2,0.2,0.3,0.5,0.5,1c0,0.2,0,0.5,0,0.8v0.1c0,0.6,0,1-0.1,1.4
			c-0.1,0.3-0.2,0.6-0.5,0.7c0.2,0.1,0.5,0.3,0.6,0.8c0.1,0.3,0.1,0.9,0.1,1.5v0.1c0,0.9-0.1,1.5-0.3,1.9c-0.2,0.3-0.6,0.6-1.2,0.6
			h-1.6v-9.1H171.4z M172.8,136.1h-0.6v3.2h0.7c0.2,0,0.3,0,0.5-0.1c0.1,0,0.1-0.1,0.1-0.2c0.1-0.2,0.1-0.7,0.1-1.2
			c0-0.7,0-1-0.1-1.2c-0.1-0.1-0.1-0.3-0.2-0.3C173.2,136.1,173,136.1,172.8,136.1z M173,139.9h-0.8v3.9h0.8c0.2,0,0.5-0.1,0.6-0.2
			c0.1-0.1,0.2-0.5,0.2-0.8c0-0.3,0-0.7,0-0.9v-0.5c0-0.5,0-0.9-0.1-1.1C173.4,140,173.3,139.9,173,139.9z"/>
		<path class="st1" d="M177,135.5h0.8l1.6,9h-0.8l-0.3-1.8h-1.8l-0.2,1.8h-0.7L177,135.5z M178.2,141.9l-0.8-5.1l0,0l-0.8,5.1H178.2
			z"/>
		<path class="st1" d="M182.3,135.5h0.8v6.8c0,0.8-0.1,1.4-0.3,1.7c-0.2,0.3-0.6,0.6-1.1,0.6s-0.9-0.1-1.1-0.5
			c-0.2-0.3-0.3-0.9-0.3-1.6v-0.8h0.8v1c0,0.5,0,0.8,0.1,0.9c0.1,0.1,0.2,0.2,0.2,0.2c0.1,0,0.1,0,0.2,0c0.3,0,0.6-0.2,0.6-0.7
			c0-0.2,0-0.3,0-0.6v-7.2H182.3z"/>
		<path class="st1" d="M184.6,138c0-1.1,0.1-1.8,0.5-2.2c0.2-0.3,0.7-0.5,1.2-0.5c0.6,0,0.9,0.2,1.1,0.6c0.1,0.2,0.2,0.6,0.2,0.9
			c0,0.3,0,0.7,0,1.2v3.9c0,0.8,0,1.4-0.1,1.6c-0.1,0.3-0.2,0.6-0.3,0.7c-0.2,0.2-0.6,0.5-1.1,0.5c-0.8,0-1.2-0.3-1.4-0.9
			c-0.1-0.5-0.2-1-0.2-1.8v-4H184.6z M187,137.8c0-0.7,0-1.2-0.1-1.5c-0.1-0.3-0.3-0.5-0.7-0.5c-0.3,0-0.6,0.1-0.7,0.5
			c-0.1,0.3-0.2,0.8-0.2,1.5v3.9c0,0.8,0,1.4,0.1,1.6c0.1,0.2,0.2,0.3,0.2,0.5c0.1,0.1,0.2,0.1,0.5,0.1c0.1,0,0.3,0,0.5-0.1
			c0.1-0.1,0.2-0.2,0.2-0.5c0.1-0.2,0.1-0.8,0.1-1.6v-3.9H187z"/>
	</g>
</g>
</svg>
