<?xml version="1.0" encoding="utf-8"?>
<!-- Generator: Adobe Illustrator 24.1.1, SVG Export Plug-In . SVG Version: 6.00 Build 0)  -->
<svg version="1.1" id="Capa_1" xmlns="http://www.w3.org/2000/svg" xmlns:xlink="http://www.w3.org/1999/xlink" x="0px" y="0px"
	 viewBox="0 0 497.6 309.8" style="enable-background:new 0 0 497.6 309.8;" xml:space="preserve">
<style type="text/css">
	.st0{fill:#221F1F;}
	.st1{fill:#E7E7E7;}
	.st2{fill:#0AAADD;}
	.st3{fill:#FDC801;}
	.st4{fill:#4E2F87;}
	.st5{fill:#EB672C;}
	.st6{fill:#03813B;}
	.st7{fill:#E52C2D;}
</style>
<g>
	<g>
		<path class="st0" d="M133.9,108.3v-4.8l4.2-1.7V75.5l-4.2-1.7v-4.8l17.4-0.3v5l-4.5,1.7v9h14.7v-9l-4.5-1.7v-4.8l17.4-0.3v5
			l-4.2,1.7v26.3l4.2,1.7v4.8H157v-4.8l4.5-1.7V91.2h-14.7v10.6l4.5,1.7v4.8H133.9z"/>
		<path class="st0" d="M198.6,108.3l-1-3.6c-0.3,0.3-0.8,0.7-1.3,1.1c-0.6,0.5-1.6,1.1-3.2,1.9c-1.6,0.8-3.1,1.2-4.5,1.2
			c-2.7,0-4.9-0.8-6.4-2.3c-1.5-1.5-2.3-3.7-2.3-6.5c0-6.2,4.5-9.2,13.5-9.2h3.9v-3.1c0-2.7-1.4-4.1-4.3-4.1c-0.9,0-1.7,0.1-2.5,0.2
			c-0.8,0.1-1.4,0.3-1.8,0.4l-0.6,0.2l-0.8,3.5h-5l-0.4-8.3c4.5-1.5,8.6-2.2,12.2-2.2c4.3,0,7.3,0.8,9.1,2.5
			c1.8,1.7,2.7,4.5,2.7,8.6v13.8l4.2,1v4.5L198.6,108.3z M197.2,95.6H194c-2.2,0-3.7,0.3-4.7,0.9s-1.4,1.5-1.4,2.8
			c0,2.2,1.1,3.4,3.3,3.4c0.9,0,1.8-0.3,2.8-0.8c1-0.5,1.8-1.1,2.3-1.7l0.8-0.8V95.6z"/>
		<path class="st0" d="M238.3,99.1l2.8,4.9c-3.6,3.2-7.6,4.8-12,4.8c-4.6,0-8.2-1.3-10.7-4c-2.6-2.7-3.8-6.4-3.8-11.2
			c0-5,1.4-8.9,4.1-11.8c2.7-2.9,6.5-4.3,11.3-4.3c1.4,0,2.9,0.2,4.6,0.5c1.6,0.3,2.9,0.7,3.8,1l1.4,0.5l-0.3,9.2h-5l-0.8-4
			c-1.1-0.3-2.4-0.4-3.9-0.4c-2.1,0-3.7,0.7-4.8,2.1c-1.2,1.4-1.7,3.5-1.7,6.2c0,3.1,0.6,5.5,1.8,7.1c1.2,1.7,2.9,2.5,5.2,2.5
			c0.7,0,1.5-0.1,2.1-0.2c0.7-0.1,1.3-0.3,2-0.6c0.6-0.3,1.1-0.5,1.5-0.7c0.4-0.2,0.8-0.5,1.5-0.8C237.8,99.4,238.2,99.2,238.3,99.1
			z"/>
		<path class="st0" d="M257.2,89.3h3.7l3.8-5.7l-2.5-0.8v-4.5l14.4-0.3v4.8l-3.9,0.7l-5.2,7.3l6.3,11.6l4.3,1.3v4.5h-10.4l-6.9-13.7
			h-3.6v7.8l3.1,1.4v4.5h-16v-4.5l4.5-1.4V70.9l-4.5-1.1v-4.5l12.9-0.4V89.3z"/>
		<path class="st0" d="M292.4,101.8V75.5h-5.3l-1.4,5.3h-5.2v-12H313v12h-5.2l-1.4-5.3h-5.3v26.3l5.3,1.7v4.8h-19.3v-4.8
			L292.4,101.8z"/>
		<path class="st0" d="M317.1,108.3v-4.8l4.2-1.7V75.5l-4.2-1.7v-4.8l17.1-0.3v5l-4.2,1.7v26.3l4.2,1.7v4.8H317.1z"/>
		<path class="st0" d="M366.9,81.4l-1.3-5.4c-1.8-0.6-3.8-0.9-6.3-0.9c-6.2,0-9.2,4.6-9.2,13.7c0,8.6,3.2,12.9,9.5,12.9
			c1.6,0,3.4-0.3,5.1-1c1.8-0.7,3.1-1.3,4.1-2l1.5-1l3.1,5c-0.1,0.1-0.4,0.4-0.7,0.6s-0.9,0.8-1.9,1.5c-1,0.7-2,1.3-3.1,1.8
			c-1.1,0.5-2.4,1-4.1,1.5s-3.3,0.7-4.9,0.7c-5.7,0-10.1-1.7-13.2-5.1c-3.1-3.4-4.7-8.3-4.7-14.8c0-6.5,1.7-11.7,5.1-15.4
			c3.4-3.7,8-5.6,13.8-5.6c2,0,4.1,0.2,6.3,0.6c2.2,0.4,3.8,0.9,5,1.3l1.7,0.7l-0.3,10.6H366.9z"/>
	</g>
	
		<rect x="3" y="89.3" transform="matrix(4.486640e-11 -1 1 4.486640e-11 -86.2663 114.2989)" class="st1" width="21.9" height="21.9"/>
	<rect x="3" y="2.3" transform="matrix(4.486640e-11 -1 1 4.486640e-11 0.7337 27.2989)" class="st1" width="21.9" height="21.9"/>
	
		<rect x="90.8" y="116.3" transform="matrix(4.494900e-11 -1 1 4.494900e-11 -25.5648 229.0279)" class="st1" width="21.9" height="21.9"/>
	<path class="st2" d="M90.8,154.4v1.6c0,5.6,4.6,10.2,10.2,10.2h1.6c5.6,0,10.2-4.6,10.2-10.2v-1.6c0-5.6-4.6-10.2-10.2-10.2H101
		C95.3,144.2,90.8,148.8,90.8,154.4z"/>
	<path class="st3" d="M33.1,99.5v1.6c0,5.6,4.6,10.2,10.2,10.2h1.6c5.6,0,10.2-4.6,10.2-10.2v-1.6c0-5.6-4.6-10.2-10.2-10.2h-1.6
		C37.6,89.3,33.1,93.9,33.1,99.5z"/>
	
		<rect x="33.1" y="60.4" transform="matrix(4.486640e-11 -1 1 4.486640e-11 -27.3671 115.4348)" class="st1" width="21.9" height="21.9"/>
	
		<rect x="90.8" y="60.4" transform="matrix(4.478379e-11 -1 1 4.478379e-11 30.3306 173.1325)" class="st1" width="21.9" height="21.9"/>
	
		<rect x="62.1" y="142.8" transform="matrix(4.486640e-11 -1 1 4.486640e-11 -80.7625 226.8302)" class="st1" width="21.9" height="21.9"/>
	
		<rect x="33.1" y="116.3" transform="matrix(4.486640e-11 -1 1 4.486640e-11 -83.2625 171.3302)" class="st1" width="21.9" height="21.9"/>
	
		<rect x="90.8" y="31.6" transform="matrix(4.494900e-11 -1 1 4.494900e-11 59.2123 144.2509)" class="st1" width="21.9" height="21.9"/>
	
		<rect x="62.1" y="31.6" transform="matrix(4.494900e-11 -1 1 4.494900e-11 30.5146 115.5532)" class="st1" width="21.9" height="21.9"/>
	<circle class="st4" cx="101.7" cy="13.6" r="11.7"/>
	
		<rect x="62.2" y="229" transform="matrix(4.494900e-11 -1 1 4.494900e-11 -166.7802 313.1156)" class="st1" width="21.9" height="21.9"/>
	
		<rect x="90.9" y="257" transform="matrix(4.494900e-11 -1 1 4.494900e-11 -166.0825 369.8133)" class="st1" width="21.9" height="21.9"/>
	
		<rect x="33.1" y="200" transform="matrix(4.494900e-11 -1 1 4.494900e-11 -166.914 254.9818)" class="st1" width="21.9" height="21.9"/>
	
		<rect x="90.9" y="200" transform="matrix(4.486640e-11 -1 1 4.486640e-11 -109.0825 312.8133)" class="st1" width="21.9" height="21.9"/>
	
		<rect x="149.9" y="200" transform="matrix(4.486640e-11 -1 1 4.486640e-11 -50.0825 371.8133)" class="st1" width="21.9" height="21.9"/>
	
		<rect x="178.9" y="200" transform="matrix(4.486640e-11 -1 1 4.486640e-11 -21.0825 400.8133)" class="st1" width="21.9" height="21.9"/>
	
		<rect x="236.9" y="200" transform="matrix(4.478379e-11 -1 1 4.478379e-11 36.9175 458.8133)" class="st1" width="21.9" height="21.9"/>
	
		<rect x="295.9" y="200" transform="matrix(4.478379e-11 -1 1 4.478379e-11 95.9175 517.8134)" class="st1" width="21.9" height="21.9"/>
	
		<rect x="354.9" y="200" transform="matrix(4.478379e-11 -1 1 4.478379e-11 154.9175 576.8134)" class="st1" width="21.9" height="21.9"/>
	
		<rect x="412.9" y="200" transform="matrix(4.478379e-11 -1 1 4.478379e-11 212.9175 634.8134)" class="st1" width="21.9" height="21.9"/>
	
		<rect x="441.9" y="200" transform="matrix(4.494900e-11 -1 1 4.494900e-11 241.9175 663.8134)" class="st1" width="21.9" height="21.9"/>
	
		<rect x="62.2" y="171.7" transform="matrix(4.486640e-11 -1 1 4.486640e-11 -109.5081 255.8435)" class="st1" width="21.9" height="21.9"/>
	<circle class="st5" cx="72.9" cy="295.7" r="11.7"/>
	<circle class="st6" cx="161.3" cy="239.9" r="11.7"/>
	<circle class="st4" cx="423.9" cy="267.9" r="11.7"/>
	<circle class="st5" cx="482.9" cy="210.9" r="11.7"/>
	<circle class="st7" cx="219.3" cy="210.9" r="11.7"/>
	
		<rect x="178.9" y="229" transform="matrix(4.486640e-11 -1 1 4.486640e-11 -50.0825 429.8133)" class="st1" width="21.9" height="21.9"/>
	
		<rect x="236.9" y="229" transform="matrix(4.478379e-11 -1 1 4.478379e-11 7.9175 487.8133)" class="st1" width="21.9" height="21.9"/>
	
		<rect x="265.9" y="229" transform="matrix(4.478379e-11 -1 1 4.478379e-11 36.9175 516.8134)" class="st1" width="21.9" height="21.9"/>
	
		<rect x="354.9" y="229" transform="matrix(4.478379e-11 -1 1 4.478379e-11 125.9175 605.8134)" class="st1" width="21.9" height="21.9"/>
	
		<rect x="383.9" y="229" transform="matrix(4.478379e-11 -1 1 4.478379e-11 154.9175 634.8134)" class="st1" width="21.9" height="21.9"/>
	
		<rect x="470.9" y="229" transform="matrix(4.494900e-11 -1 1 4.494900e-11 241.9175 721.8134)" class="st1" width="21.9" height="21.9"/>
	
		<rect x="149.9" y="257" transform="matrix(4.486640e-11 -1 1 4.486640e-11 -107.0825 428.8133)" class="st1" width="21.9" height="21.9"/>
	
		<rect x="207.9" y="257" transform="matrix(4.478379e-11 -1 1 4.478379e-11 -49.0825 486.8133)" class="st1" width="21.9" height="21.9"/>
	
		<rect x="295.9" y="257" transform="matrix(4.478379e-11 -1 1 4.478379e-11 38.9175 574.8134)" class="st1" width="21.9" height="21.9"/>
	
		<rect x="441.9" y="257" transform="matrix(4.494900e-11 -1 1 4.494900e-11 184.9175 720.8134)" class="st1" width="21.9" height="21.9"/>
	
		<rect x="178.9" y="286" transform="matrix(4.486640e-11 -1 1 4.486640e-11 -107.0825 486.8133)" class="st1" width="21.9" height="21.9"/>
	
		<rect x="120.9" y="286" transform="matrix(4.486640e-11 -1 1 4.486640e-11 -165.0825 428.8133)" class="st1" width="21.9" height="21.9"/>
	
		<rect x="236.9" y="286" transform="matrix(4.478379e-11 -1 1 4.478379e-11 -49.0825 544.8134)" class="st1" width="21.9" height="21.9"/>
	<circle class="st3" cx="336.9" cy="239.9" r="11.7"/>
	<circle class="st2" cx="307.9" cy="295.9" r="11.7"/>
	<g>
		<path class="st0" d="M135.7,139.2c-1.2-0.4-2.1-0.9-2.8-1.5l0.9-1.9c0.6,0.6,1.5,1,2.5,1.4c1,0.4,2,0.5,3.1,0.5
			c1.4,0,2.4-0.2,3.1-0.7c0.7-0.5,1-1.1,1-1.9c0-0.6-0.2-1-0.6-1.4c-0.4-0.4-0.8-0.6-1.4-0.8c-0.6-0.2-1.3-0.4-2.3-0.6
			c-1.3-0.3-2.3-0.6-3.1-0.9c-0.8-0.3-1.4-0.8-2-1.4s-0.8-1.5-0.8-2.6c0-0.9,0.2-1.7,0.7-2.4s1.2-1.3,2.1-1.7c1-0.4,2.2-0.6,3.6-0.6
			c1,0,2,0.1,2.9,0.4c1,0.3,1.8,0.6,2.5,1.1l-0.8,1.9c-0.7-0.4-1.5-0.8-2.3-1c-0.8-0.2-1.6-0.3-2.4-0.3c-1.4,0-2.4,0.2-3.1,0.7
			s-1,1.1-1,1.9c0,0.6,0.2,1,0.6,1.4c0.4,0.4,0.9,0.6,1.4,0.8c0.6,0.2,1.3,0.4,2.3,0.6c1.3,0.3,2.3,0.6,3,0.9c0.8,0.3,1.4,0.8,2,1.4
			c0.6,0.6,0.8,1.5,0.8,2.5c0,0.9-0.2,1.7-0.7,2.4c-0.5,0.7-1.2,1.3-2.2,1.7c-1,0.4-2.2,0.6-3.6,0.6
			C138.1,139.8,136.9,139.6,135.7,139.2z"/>
		<path class="st0" d="M161.6,134h-10.3c0.1,1.1,0.6,2,1.5,2.7c0.8,0.7,1.9,1,3.1,1c1.5,0,2.7-0.5,3.7-1.5l1.3,1.5
			c-0.6,0.7-1.3,1.2-2.1,1.5c-0.9,0.4-1.8,0.5-2.9,0.5c-1.3,0-2.5-0.3-3.6-0.8c-1-0.6-1.8-1.3-2.4-2.3c-0.6-1-0.9-2.1-0.9-3.4
			c0-1.2,0.3-2.3,0.8-3.3c0.6-1,1.3-1.8,2.3-2.3c1-0.6,2.1-0.8,3.3-0.8s2.3,0.3,3.3,0.8c1,0.6,1.7,1.3,2.2,2.3
			c0.5,1,0.8,2.1,0.8,3.4C161.6,133.4,161.6,133.7,161.6,134z M152.6,129.7c-0.7,0.7-1.2,1.6-1.3,2.6h8.2c-0.1-1.1-0.6-1.9-1.3-2.6
			c-0.7-0.7-1.7-1-2.8-1C154.2,128.7,153.3,129,152.6,129.7z"/>
		<path class="st0" d="M185.6,128.1c0.9,0.9,1.4,2.3,1.4,4.1v7.3h-2.3v-7.1c0-1.2-0.3-2.2-0.9-2.8c-0.6-0.6-1.4-0.9-2.4-0.9
			c-1.2,0-2.1,0.4-2.8,1.1c-0.7,0.7-1,1.8-1,3.1v6.6h-2.3v-7.1c0-1.2-0.3-2.2-0.9-2.8c-0.6-0.6-1.4-0.9-2.4-0.9
			c-1.2,0-2.1,0.4-2.8,1.1c-0.7,0.7-1,1.8-1,3.1v6.6h-2.3v-12.7h2.2v1.9c0.5-0.7,1.1-1.2,1.8-1.5c0.8-0.3,1.6-0.5,2.6-0.5
			c1,0,1.9,0.2,2.6,0.6c0.8,0.4,1.4,1,1.8,1.8c0.5-0.7,1.1-1.3,2-1.7c0.9-0.4,1.8-0.6,2.9-0.6C183.4,126.7,184.7,127.2,185.6,128.1z
			"/>
		<path class="st0" d="M201.1,128c0.9,0.9,1.4,2.2,1.4,3.9v7.7h-2.2v-1.7c-0.4,0.6-0.9,1-1.6,1.4c-0.7,0.3-1.6,0.5-2.5,0.5
			c-1.4,0-2.6-0.3-3.4-1c-0.9-0.7-1.3-1.6-1.3-2.7s0.4-2,1.2-2.7c0.8-0.7,2.1-1,3.9-1h3.6v-0.5c0-1-0.3-1.8-0.9-2.3
			c-0.6-0.5-1.4-0.8-2.5-0.8c-0.8,0-1.5,0.1-2.2,0.4s-1.3,0.6-1.8,1l-1-1.7c0.7-0.5,1.4-0.9,2.4-1.2s1.9-0.4,2.9-0.4
			C198.8,126.7,200.1,127.2,201.1,128z M198.8,137.3c0.6-0.4,1.1-0.9,1.4-1.7v-1.8h-3.6c-2,0-2.9,0.7-2.9,2c0,0.6,0.2,1.1,0.7,1.5
			s1.2,0.6,2.1,0.6S198.1,137.7,198.8,137.3z"/>
		<path class="st0" d="M218.5,128.1c1,0.9,1.4,2.3,1.4,4.1v7.3h-2.3v-7.1c0-1.2-0.3-2.2-0.9-2.8s-1.4-0.9-2.5-0.9
			c-1.2,0-2.2,0.4-3,1.1c-0.7,0.7-1.1,1.8-1.1,3.1v6.6h-2.3v-12.7h2.2v1.9c0.5-0.7,1.1-1.2,1.9-1.5c0.8-0.4,1.7-0.5,2.7-0.5
			C216.3,126.7,217.5,127.2,218.5,128.1z"/>
		<path class="st0" d="M234,128c0.9,0.9,1.4,2.2,1.4,3.9v7.7h-2.2v-1.7c-0.4,0.6-0.9,1-1.6,1.4c-0.7,0.3-1.6,0.5-2.5,0.5
			c-1.4,0-2.6-0.3-3.4-1c-0.9-0.7-1.3-1.6-1.3-2.7s0.4-2,1.2-2.7c0.8-0.7,2.1-1,3.9-1h3.6v-0.5c0-1-0.3-1.8-0.9-2.3
			c-0.6-0.5-1.4-0.8-2.5-0.8c-0.8,0-1.5,0.1-2.2,0.4s-1.3,0.6-1.8,1l-1-1.7c0.7-0.5,1.4-0.9,2.4-1.2s1.9-0.4,2.9-0.4
			C231.7,126.7,233,127.2,234,128z M231.7,137.3c0.6-0.4,1.1-0.9,1.4-1.7v-1.8h-3.6c-2,0-2.9,0.7-2.9,2c0,0.6,0.2,1.1,0.7,1.5
			s1.2,0.6,2.1,0.6S231,137.7,231.7,137.3z"/>
		<path class="st0" d="M249.9,139.2c-1.2-0.4-2.1-0.9-2.8-1.5l0.9-1.9c0.6,0.6,1.5,1,2.5,1.4c1,0.4,2,0.5,3.1,0.5
			c1.4,0,2.4-0.2,3.1-0.7c0.7-0.5,1-1.1,1-1.9c0-0.6-0.2-1-0.6-1.4c-0.4-0.4-0.8-0.6-1.4-0.8c-0.6-0.2-1.3-0.4-2.3-0.6
			c-1.3-0.3-2.3-0.6-3.1-0.9c-0.8-0.3-1.4-0.8-2-1.4s-0.8-1.5-0.8-2.6c0-0.9,0.2-1.7,0.7-2.4s1.2-1.3,2.1-1.7c1-0.4,2.2-0.6,3.6-0.6
			c1,0,2,0.1,2.9,0.4c1,0.3,1.8,0.6,2.5,1.1l-0.8,1.9c-0.7-0.4-1.5-0.8-2.3-1c-0.8-0.2-1.6-0.3-2.4-0.3c-1.4,0-2.4,0.2-3.1,0.7
			s-1,1.1-1,1.9c0,0.6,0.2,1,0.6,1.4c0.4,0.4,0.9,0.6,1.4,0.8c0.6,0.2,1.3,0.4,2.3,0.6c1.3,0.3,2.3,0.6,3,0.9c0.8,0.3,1.4,0.8,2,1.4
			c0.6,0.6,0.8,1.5,0.8,2.5c0,0.9-0.2,1.7-0.7,2.4c-0.5,0.7-1.2,1.3-2.2,1.7c-1,0.4-2.2,0.6-3.6,0.6
			C252.3,139.8,251.1,139.6,249.9,139.2z"/>
		<path class="st0" d="M273,128c0.9,0.9,1.4,2.2,1.4,3.9v7.7h-2.2v-1.7c-0.4,0.6-0.9,1-1.6,1.4c-0.7,0.3-1.6,0.5-2.5,0.5
			c-1.4,0-2.6-0.3-3.4-1c-0.9-0.7-1.3-1.6-1.3-2.7s0.4-2,1.2-2.7c0.8-0.7,2.1-1,3.9-1h3.6v-0.5c0-1-0.3-1.8-0.9-2.3
			c-0.6-0.5-1.4-0.8-2.5-0.8c-0.8,0-1.5,0.1-2.2,0.4s-1.3,0.6-1.8,1l-1-1.7c0.7-0.5,1.4-0.9,2.4-1.2s1.9-0.4,2.9-0.4
			C270.7,126.7,272.1,127.2,273,128z M270.7,137.3c0.6-0.4,1.1-0.9,1.4-1.7v-1.8h-3.6c-2,0-2.9,0.7-2.9,2c0,0.6,0.2,1.1,0.7,1.5
			s1.2,0.6,2.1,0.6S270.1,137.7,270.7,137.3z"/>
		<path class="st0" d="M290.4,128.1c1,0.9,1.4,2.3,1.4,4.1v7.3h-2.3v-7.1c0-1.2-0.3-2.2-0.9-2.8s-1.4-0.9-2.5-0.9
			c-1.2,0-2.2,0.4-3,1.1c-0.7,0.7-1.1,1.8-1.1,3.1v6.6h-2.3v-12.7h2.2v1.9c0.5-0.7,1.1-1.2,1.9-1.5c0.8-0.4,1.7-0.5,2.7-0.5
			C288.2,126.7,289.5,127.2,290.4,128.1z"/>
		<path class="st0" d="M304.4,138.8c-0.3,0.3-0.8,0.5-1.2,0.7s-1,0.2-1.5,0.2c-1.3,0-2.3-0.3-3-1c-0.7-0.7-1.1-1.7-1.1-3v-7h-2.2
			v-1.9h2.2v-2.8h2.3v2.8h3.6v1.9h-3.6v6.9c0,0.7,0.2,1.2,0.5,1.6s0.8,0.6,1.5,0.6c0.7,0,1.3-0.2,1.8-0.6L304.4,138.8z"/>
		<path class="st0" d="M316.9,128c0.9,0.9,1.4,2.2,1.4,3.9v7.7h-2.2v-1.7c-0.4,0.6-0.9,1-1.6,1.4c-0.7,0.3-1.6,0.5-2.5,0.5
			c-1.4,0-2.6-0.3-3.4-1c-0.9-0.7-1.3-1.6-1.3-2.7s0.4-2,1.2-2.7c0.8-0.7,2.1-1,3.9-1h3.6v-0.5c0-1-0.3-1.8-0.9-2.3
			c-0.6-0.5-1.4-0.8-2.5-0.8c-0.8,0-1.5,0.1-2.2,0.4s-1.3,0.6-1.8,1l-1-1.7c0.7-0.5,1.4-0.9,2.4-1.2s1.9-0.4,2.9-0.4
			C314.7,126.7,316,127.2,316.9,128z M314.6,137.3c0.6-0.4,1.1-0.9,1.4-1.7v-1.8h-3.6c-2,0-2.9,0.7-2.9,2c0,0.6,0.2,1.1,0.7,1.5
			s1.2,0.6,2.1,0.6S314,137.7,314.6,137.3z"/>
		<path class="st0" d="M340,128c0.9,0.9,1.4,2.2,1.4,3.9v7.7h-2.2v-1.7c-0.4,0.6-0.9,1-1.6,1.4c-0.7,0.3-1.6,0.5-2.5,0.5
			c-1.4,0-2.6-0.3-3.4-1c-0.9-0.7-1.3-1.6-1.3-2.7s0.4-2,1.2-2.7c0.8-0.7,2.1-1,3.9-1h3.6v-0.5c0-1-0.3-1.8-0.9-2.3
			c-0.6-0.5-1.4-0.8-2.5-0.8c-0.8,0-1.5,0.1-2.2,0.4s-1.3,0.6-1.8,1l-1-1.7c0.7-0.5,1.4-0.9,2.4-1.2s1.9-0.4,2.9-0.4
			C337.7,126.7,339,127.2,340,128z M337.7,137.3c0.6-0.4,1.1-0.9,1.4-1.7v-1.8h-3.6c-2,0-2.9,0.7-2.9,2c0,0.6,0.2,1.1,0.7,1.5
			s1.2,0.6,2.1,0.6S337,137.7,337.7,137.3z"/>
		<path class="st0" d="M364.3,127.5c1,0.5,1.7,1.3,2.3,2.3c0.6,1,0.8,2.1,0.8,3.4c0,1.3-0.3,2.4-0.8,3.4c-0.6,1-1.3,1.7-2.3,2.3
			c-1,0.5-2.1,0.8-3.3,0.8c-0.9,0-1.7-0.2-2.5-0.5s-1.4-0.9-1.9-1.5v6.6h-2.3v-17.4h2.2v2c0.5-0.7,1.2-1.2,1.9-1.6
			c0.8-0.4,1.6-0.5,2.6-0.5C362.3,126.7,363.4,127,364.3,127.5z M363,137.1c0.6-0.4,1.2-0.9,1.5-1.6c0.4-0.7,0.6-1.5,0.6-2.3
			c0-0.9-0.2-1.7-0.6-2.3c-0.4-0.7-0.9-1.2-1.5-1.6c-0.6-0.4-1.4-0.6-2.2-0.6c-0.8,0-1.5,0.2-2.2,0.6c-0.6,0.4-1.2,0.9-1.5,1.6
			c-0.4,0.7-0.6,1.4-0.6,2.3c0,0.9,0.2,1.7,0.6,2.3c0.4,0.7,0.9,1.2,1.5,1.6s1.4,0.6,2.2,0.6C361.7,137.7,362.4,137.5,363,137.1z"/>
		<path class="st0" d="M383.6,126.8v12.7h-2.2v-1.9c-0.5,0.7-1.1,1.2-1.8,1.5c-0.8,0.4-1.6,0.5-2.5,0.5c-1.7,0-3-0.5-4-1.4
			c-1-0.9-1.5-2.3-1.5-4.1v-7.3h2.3v7.1c0,1.2,0.3,2.2,0.9,2.8c0.6,0.6,1.4,0.9,2.5,0.9c1.2,0,2.2-0.4,2.9-1.1
			c0.7-0.7,1.1-1.8,1.1-3.1v-6.6H383.6z"/>
		<path class="st0" d="M393.1,127.3c0.8-0.4,1.7-0.6,2.9-0.6v2.2c-0.1,0-0.3,0-0.5,0c-1.2,0-2.2,0.4-2.9,1.1
			c-0.7,0.7-1.1,1.8-1.1,3.2v6.3h-2.3v-12.7h2.2v2.1C391.7,128.2,392.3,127.7,393.1,127.3z"/>
		<path class="st0" d="M401.8,138.9c-1-0.6-1.8-1.3-2.4-2.3c-0.6-1-0.9-2.1-0.9-3.3s0.3-2.4,0.9-3.3c0.6-1,1.4-1.8,2.4-2.3
			c1-0.6,2.1-0.8,3.4-0.8s2.4,0.3,3.4,0.8c1,0.6,1.8,1.3,2.4,2.3c0.6,1,0.9,2.1,0.9,3.3s-0.3,2.4-0.9,3.3c-0.6,1-1.4,1.8-2.4,2.3
			c-1,0.6-2.1,0.8-3.4,0.8S402.8,139.4,401.8,138.9z M407.4,137.1c0.6-0.4,1.2-0.9,1.5-1.6c0.4-0.7,0.6-1.5,0.6-2.3
			c0-0.9-0.2-1.7-0.6-2.3c-0.4-0.7-0.9-1.2-1.5-1.6c-0.6-0.4-1.4-0.6-2.2-0.6c-0.8,0-1.5,0.2-2.2,0.6c-0.6,0.4-1.2,0.9-1.5,1.6
			c-0.4,0.7-0.6,1.5-0.6,2.3c0,0.9,0.2,1.7,0.6,2.3c0.4,0.7,0.9,1.2,1.5,1.6c0.6,0.4,1.4,0.6,2.2,0.6
			C406,137.7,406.8,137.5,407.4,137.1z"/>
		<path class="st0" d="M146.1,154.8v17.8h-2.2v-2c-0.5,0.7-1.2,1.2-1.9,1.6c-0.8,0.4-1.6,0.6-2.6,0.6c-1.2,0-2.3-0.3-3.3-0.8
			c-1-0.5-1.7-1.3-2.3-2.3s-0.8-2.1-0.8-3.4c0-1.3,0.3-2.4,0.8-3.4s1.3-1.7,2.3-2.3c1-0.5,2.1-0.8,3.3-0.8c0.9,0,1.8,0.2,2.5,0.5
			s1.4,0.9,1.9,1.5v-7H146.1z M141.8,170.1c0.7-0.4,1.2-0.9,1.5-1.6c0.4-0.7,0.6-1.5,0.6-2.3c0-0.9-0.2-1.7-0.6-2.3
			c-0.4-0.7-0.9-1.2-1.5-1.6c-0.7-0.4-1.4-0.6-2.2-0.6c-0.8,0-1.5,0.2-2.2,0.6c-0.6,0.4-1.2,0.9-1.5,1.6c-0.4,0.7-0.6,1.5-0.6,2.3
			c0,0.9,0.2,1.7,0.6,2.3c0.4,0.7,0.9,1.2,1.5,1.6c0.6,0.4,1.4,0.6,2.2,0.6C140.4,170.7,141.1,170.5,141.8,170.1z"/>
		<path class="st0" d="M163,167h-10.3c0.1,1.1,0.6,2,1.5,2.7s1.9,1,3.1,1c1.5,0,2.7-0.5,3.7-1.5l1.3,1.5c-0.6,0.7-1.3,1.2-2.1,1.5
			c-0.9,0.4-1.8,0.5-2.9,0.5c-1.3,0-2.5-0.3-3.6-0.8c-1-0.6-1.8-1.3-2.4-2.3c-0.6-1-0.9-2.1-0.9-3.4c0-1.2,0.3-2.3,0.8-3.3
			c0.6-1,1.3-1.8,2.3-2.3c1-0.6,2.1-0.8,3.3-0.8s2.3,0.3,3.3,0.8c1,0.6,1.7,1.3,2.2,2.3c0.5,1,0.8,2.1,0.8,3.4
			C163.1,166.4,163.1,166.7,163,167z M154,162.7c-0.7,0.7-1.2,1.6-1.3,2.6h8.2c-0.1-1.1-0.6-1.9-1.3-2.6c-0.7-0.7-1.7-1-2.8-1
			C155.7,161.7,154.8,162,154,162.7z"/>
		<path class="st0" d="M168,172.3c-1-0.3-1.7-0.6-2.3-1.1l1-1.8c0.6,0.4,1.2,0.7,2,1c0.8,0.2,1.6,0.4,2.4,0.4c2,0,3-0.6,3-1.7
			c0-0.4-0.1-0.7-0.4-0.9c-0.3-0.2-0.6-0.4-1-0.5s-1-0.2-1.7-0.3c-1-0.2-1.9-0.3-2.5-0.6c-0.6-0.2-1.2-0.6-1.7-1.1s-0.7-1.2-0.7-2.1
			c0-1.2,0.5-2.1,1.4-2.8c1-0.7,2.2-1,3.9-1c0.8,0,1.7,0.1,2.5,0.3c0.8,0.2,1.5,0.5,2.1,0.8l-1,1.8c-1-0.7-2.3-1-3.7-1
			c-1,0-1.7,0.2-2.2,0.5c-0.5,0.3-0.8,0.7-0.8,1.3c0,0.4,0.1,0.7,0.4,1s0.6,0.4,1.1,0.5c0.4,0.1,1,0.2,1.8,0.4
			c1,0.2,1.9,0.4,2.5,0.6c0.6,0.2,1.2,0.5,1.6,1c0.4,0.5,0.7,1.2,0.7,2c0,1.2-0.5,2.1-1.5,2.7c-1,0.7-2.3,1-4,1
			C170,172.7,169,172.6,168,172.3z"/>
		<path class="st0" d="M189.2,161c0.9,0.9,1.4,2.2,1.4,3.9v7.7h-2.2v-1.7c-0.4,0.6-0.9,1-1.6,1.4s-1.6,0.5-2.5,0.5
			c-1.4,0-2.6-0.3-3.4-1c-0.9-0.7-1.3-1.6-1.3-2.7c0-1.1,0.4-2,1.2-2.7c0.8-0.7,2.1-1,3.9-1h3.6v-0.5c0-1-0.3-1.8-0.9-2.3
			s-1.4-0.8-2.5-0.8c-0.8,0-1.5,0.1-2.2,0.4s-1.3,0.6-1.8,1l-1-1.7c0.7-0.5,1.4-0.9,2.4-1.2c0.9-0.3,1.9-0.4,2.9-0.4
			C186.9,159.7,188.2,160.2,189.2,161z M186.9,170.3c0.6-0.4,1.1-0.9,1.4-1.7v-1.8h-3.6c-2,0-2.9,0.7-2.9,2c0,0.6,0.2,1.1,0.7,1.5
			c0.5,0.4,1.2,0.6,2.1,0.6S186.3,170.7,186.9,170.3z"/>
		<path class="st0" d="M199.9,160.3c0.8-0.4,1.7-0.6,2.9-0.6v2.2c-0.1,0-0.3,0-0.5,0c-1.2,0-2.2,0.4-2.9,1.1
			c-0.7,0.7-1.1,1.8-1.1,3.2v6.3H196v-12.7h2.2v2.1C198.6,161.2,199.2,160.7,199.9,160.3z"/>
		<path class="st0" d="M210.7,160.3c0.8-0.4,1.7-0.6,2.9-0.6v2.2c-0.1,0-0.3,0-0.5,0c-1.2,0-2.2,0.4-2.9,1.1
			c-0.7,0.7-1.1,1.8-1.1,3.2v6.3h-2.3v-12.7h2.2v2.1C209.3,161.2,209.9,160.7,210.7,160.3z"/>
		<path class="st0" d="M219.4,171.9c-1-0.6-1.8-1.3-2.4-2.3c-0.6-1-0.9-2.1-0.9-3.3s0.3-2.4,0.9-3.3c0.6-1,1.4-1.8,2.4-2.3
			c1-0.6,2.1-0.8,3.4-0.8s2.4,0.3,3.4,0.8c1,0.6,1.8,1.3,2.4,2.3c0.6,1,0.9,2.1,0.9,3.3s-0.3,2.4-0.9,3.3c-0.6,1-1.4,1.8-2.4,2.3
			c-1,0.6-2.1,0.8-3.4,0.8S220.4,172.4,219.4,171.9z M225,170.1c0.6-0.4,1.2-0.9,1.5-1.6c0.4-0.7,0.6-1.5,0.6-2.3
			c0-0.9-0.2-1.7-0.6-2.3c-0.4-0.7-0.9-1.2-1.5-1.6c-0.6-0.4-1.4-0.6-2.2-0.6c-0.8,0-1.5,0.2-2.2,0.6c-0.6,0.4-1.2,0.9-1.5,1.6
			c-0.4,0.7-0.6,1.5-0.6,2.3c0,0.9,0.2,1.7,0.6,2.3c0.4,0.7,0.9,1.2,1.5,1.6c0.6,0.4,1.4,0.6,2.2,0.6
			C223.7,170.7,224.4,170.5,225,170.1z"/>
		<path class="st0" d="M233.7,154.8h2.3v17.8h-2.3V154.8z"/>
		<path class="st0" d="M241.5,154.8h2.3v17.8h-2.3V154.8z"/>
		<path class="st0" d="M251.4,171.9c-1-0.6-1.8-1.3-2.4-2.3c-0.6-1-0.9-2.1-0.9-3.3s0.3-2.4,0.9-3.3c0.6-1,1.4-1.8,2.4-2.3
			c1-0.6,2.1-0.8,3.4-0.8s2.4,0.3,3.4,0.8c1,0.6,1.8,1.3,2.4,2.3c0.6,1,0.9,2.1,0.9,3.3s-0.3,2.4-0.9,3.3c-0.6,1-1.4,1.8-2.4,2.3
			c-1,0.6-2.1,0.8-3.4,0.8S252.4,172.4,251.4,171.9z M257,170.1c0.6-0.4,1.2-0.9,1.5-1.6c0.4-0.7,0.6-1.5,0.6-2.3
			c0-0.9-0.2-1.7-0.6-2.3c-0.4-0.7-0.9-1.2-1.5-1.6c-0.6-0.4-1.4-0.6-2.2-0.6c-0.8,0-1.5,0.2-2.2,0.6c-0.6,0.4-1.2,0.9-1.5,1.6
			c-0.4,0.7-0.6,1.5-0.6,2.3c0,0.9,0.2,1.7,0.6,2.3c0.4,0.7,0.9,1.2,1.5,1.6c0.6,0.4,1.4,0.6,2.2,0.6
			C255.6,170.7,256.3,170.5,257,170.1z"/>
		<path class="st0" d="M273.3,157c-0.3-0.3-0.4-0.6-0.4-1.1c0-0.4,0.1-0.8,0.4-1.1s0.7-0.4,1.1-0.4s0.8,0.1,1.1,0.4
			c0.3,0.3,0.4,0.6,0.4,1c0,0.4-0.1,0.8-0.4,1.1c-0.3,0.3-0.7,0.4-1.1,0.4S273.6,157.2,273.3,157z M273.2,159.8h2.3v12.7h-2.3V159.8
			z"/>
		<path class="st0" d="M291.7,161.1c1,0.9,1.4,2.3,1.4,4.1v7.3h-2.3v-7.1c0-1.2-0.3-2.2-0.9-2.8c-0.6-0.6-1.4-0.9-2.5-0.9
			c-1.2,0-2.2,0.4-3,1.1c-0.7,0.7-1.1,1.8-1.1,3.1v6.6H281v-12.7h2.2v1.9c0.5-0.7,1.1-1.2,1.9-1.5s1.7-0.5,2.7-0.5
			C289.5,159.7,290.7,160.2,291.7,161.1z"/>
		<path class="st0" d="M305.6,171.8c-0.3,0.3-0.8,0.5-1.2,0.7s-1,0.2-1.5,0.2c-1.3,0-2.3-0.3-3-1s-1.1-1.7-1.1-3v-7h-2.2v-1.9h2.2
			v-2.8h2.3v2.8h3.6v1.9h-3.6v6.9c0,0.7,0.2,1.2,0.5,1.6c0.3,0.4,0.8,0.6,1.5,0.6c0.7,0,1.3-0.2,1.8-0.6L305.6,171.8z"/>
		<path class="st0" d="M320.5,167h-10.3c0.1,1.1,0.6,2,1.5,2.7s1.9,1,3.1,1c1.5,0,2.7-0.5,3.7-1.5l1.3,1.5c-0.6,0.7-1.3,1.2-2.1,1.5
			c-0.9,0.4-1.8,0.5-2.9,0.5c-1.3,0-2.5-0.3-3.6-0.8c-1-0.6-1.8-1.3-2.4-2.3c-0.6-1-0.9-2.1-0.9-3.4c0-1.2,0.3-2.3,0.8-3.3
			c0.6-1,1.3-1.8,2.3-2.3c1-0.6,2.1-0.8,3.3-0.8s2.3,0.3,3.3,0.8c1,0.6,1.7,1.3,2.2,2.3c0.5,1,0.8,2.1,0.8,3.4
			C320.6,166.4,320.6,166.7,320.5,167z M311.5,162.7c-0.7,0.7-1.2,1.6-1.3,2.6h8.2c-0.1-1.1-0.6-1.9-1.3-2.6c-0.7-0.7-1.7-1-2.8-1
			C313.2,161.7,312.3,162,311.5,162.7z"/>
		<path class="st0" d="M328.9,160.3c0.8-0.4,1.7-0.6,2.9-0.6v2.2c-0.1,0-0.3,0-0.5,0c-1.2,0-2.2,0.4-2.9,1.1
			c-0.7,0.7-1.1,1.8-1.1,3.2v6.3h-2.3v-12.7h2.2v2.1C327.5,161.2,328.1,160.7,328.9,160.3z"/>
		<path class="st0" d="M337.6,171.9c-1-0.6-1.8-1.3-2.4-2.3c-0.6-1-0.9-2.1-0.9-3.3s0.3-2.4,0.9-3.3s1.4-1.8,2.4-2.3
			c1-0.6,2.2-0.8,3.5-0.8c1.2,0,2.2,0.2,3.1,0.7c0.9,0.5,1.6,1.1,2.1,2l-1.8,1.1c-0.4-0.6-0.9-1.1-1.5-1.4c-0.6-0.3-1.2-0.5-2-0.5
			c-0.8,0-1.6,0.2-2.2,0.6c-0.7,0.4-1.2,0.9-1.6,1.6c-0.4,0.7-0.6,1.5-0.6,2.3c0,0.9,0.2,1.7,0.6,2.4c0.4,0.7,0.9,1.2,1.6,1.6
			c0.7,0.4,1.4,0.6,2.2,0.6c0.7,0,1.4-0.2,2-0.5s1.1-0.8,1.5-1.4l1.8,1.1c-0.5,0.9-1.2,1.6-2.1,2c-0.9,0.5-1.9,0.7-3.1,0.7
			C339.8,172.7,338.6,172.4,337.6,171.9z"/>
		<path class="st0" d="M352.2,171.9c-1-0.6-1.8-1.3-2.4-2.3c-0.6-1-0.9-2.1-0.9-3.3s0.3-2.4,0.9-3.3c0.6-1,1.4-1.8,2.4-2.3
			c1-0.6,2.1-0.8,3.4-0.8s2.4,0.3,3.4,0.8c1,0.6,1.8,1.3,2.4,2.3c0.6,1,0.9,2.1,0.9,3.3s-0.3,2.4-0.9,3.3c-0.6,1-1.4,1.8-2.4,2.3
			c-1,0.6-2.1,0.8-3.4,0.8S353.2,172.4,352.2,171.9z M357.8,170.1c0.6-0.4,1.2-0.9,1.5-1.6c0.4-0.7,0.6-1.5,0.6-2.3
			c0-0.9-0.2-1.7-0.6-2.3c-0.4-0.7-0.9-1.2-1.5-1.6c-0.6-0.4-1.4-0.6-2.2-0.6c-0.8,0-1.5,0.2-2.2,0.6c-0.6,0.4-1.2,0.9-1.5,1.6
			c-0.4,0.7-0.6,1.5-0.6,2.3c0,0.9,0.2,1.7,0.6,2.3c0.4,0.7,0.9,1.2,1.5,1.6c0.6,0.4,1.4,0.6,2.2,0.6
			C356.4,170.7,357.2,170.5,357.8,170.1z"/>
		<path class="st0" d="M368.5,171.9c-1-0.6-1.8-1.3-2.4-2.3c-0.6-1-0.9-2.1-0.9-3.3s0.3-2.4,0.9-3.3c0.6-1,1.4-1.8,2.4-2.3
			c1-0.6,2.1-0.8,3.4-0.8s2.4,0.3,3.4,0.8c1,0.6,1.8,1.3,2.4,2.3c0.6,1,0.9,2.1,0.9,3.3s-0.3,2.4-0.9,3.3c-0.6,1-1.4,1.8-2.4,2.3
			c-1,0.6-2.1,0.8-3.4,0.8S369.6,172.4,368.5,171.9z M374.1,170.1c0.6-0.4,1.2-0.9,1.5-1.6c0.4-0.7,0.6-1.5,0.6-2.3
			c0-0.9-0.2-1.7-0.6-2.3c-0.4-0.7-0.9-1.2-1.5-1.6c-0.6-0.4-1.4-0.6-2.2-0.6c-0.8,0-1.5,0.2-2.2,0.6c-0.6,0.4-1.2,0.9-1.5,1.6
			c-0.4,0.7-0.6,1.5-0.6,2.3c0,0.9,0.2,1.7,0.6,2.3c0.4,0.7,0.9,1.2,1.5,1.6c0.6,0.4,1.4,0.6,2.2,0.6
			C372.8,170.7,373.5,170.5,374.1,170.1z"/>
		<path class="st0" d="M392.9,160.5c1,0.5,1.7,1.3,2.3,2.3c0.6,1,0.8,2.1,0.8,3.4c0,1.3-0.3,2.4-0.8,3.4c-0.6,1-1.3,1.7-2.3,2.3
			c-1,0.5-2.1,0.8-3.3,0.8c-0.9,0-1.7-0.2-2.5-0.5s-1.4-0.9-1.9-1.5v6.6h-2.3v-17.4h2.2v2c0.5-0.7,1.2-1.2,1.9-1.6s1.6-0.5,2.6-0.5
			C390.8,159.7,391.9,160,392.9,160.5z M391.6,170.1c0.6-0.4,1.2-0.9,1.5-1.6c0.4-0.7,0.6-1.5,0.6-2.3c0-0.9-0.2-1.7-0.6-2.3
			c-0.4-0.7-0.9-1.2-1.5-1.6c-0.6-0.4-1.4-0.6-2.2-0.6c-0.8,0-1.5,0.2-2.2,0.6c-0.6,0.4-1.2,0.9-1.5,1.6c-0.4,0.7-0.6,1.4-0.6,2.3
			c0,0.9,0.2,1.7,0.6,2.3c0.4,0.7,0.9,1.2,1.5,1.6c0.7,0.4,1.4,0.6,2.2,0.6C390.2,170.7,390.9,170.5,391.6,170.1z"/>
		<path class="st0" d="M411.8,167h-10.3c0.1,1.1,0.6,2,1.5,2.7s1.9,1,3.1,1c1.5,0,2.7-0.5,3.7-1.5l1.3,1.5c-0.6,0.7-1.3,1.2-2.1,1.5
			c-0.9,0.4-1.8,0.5-2.9,0.5c-1.3,0-2.5-0.3-3.6-0.8c-1-0.6-1.8-1.3-2.4-2.3c-0.6-1-0.9-2.1-0.9-3.4c0-1.2,0.3-2.3,0.8-3.3
			c0.6-1,1.3-1.8,2.3-2.3c1-0.6,2.1-0.8,3.3-0.8s2.3,0.3,3.3,0.8c1,0.6,1.7,1.3,2.2,2.3c0.5,1,0.8,2.1,0.8,3.4
			C411.8,166.4,411.8,166.7,411.8,167z M402.8,162.7c-0.7,0.7-1.2,1.6-1.3,2.6h8.2c-0.1-1.1-0.6-1.9-1.3-2.6c-0.7-0.7-1.7-1-2.8-1
			C404.4,161.7,403.5,162,402.8,162.7z"/>
		<path class="st0" d="M420.1,160.3c0.8-0.4,1.7-0.6,2.9-0.6v2.2c-0.1,0-0.3,0-0.5,0c-1.2,0-2.2,0.4-2.9,1.1
			c-0.7,0.7-1.1,1.8-1.1,3.2v6.3h-2.3v-12.7h2.2v2.1C418.7,161.2,419.3,160.7,420.1,160.3z"/>
		<path class="st0" d="M435.5,161c0.9,0.9,1.4,2.2,1.4,3.9v7.7h-2.2v-1.7c-0.4,0.6-0.9,1-1.6,1.4s-1.6,0.5-2.5,0.5
			c-1.4,0-2.6-0.3-3.4-1c-0.9-0.7-1.3-1.6-1.3-2.7c0-1.1,0.4-2,1.2-2.7c0.8-0.7,2.1-1,3.9-1h3.6v-0.5c0-1-0.3-1.8-0.9-2.3
			s-1.4-0.8-2.5-0.8c-0.8,0-1.5,0.1-2.2,0.4s-1.3,0.6-1.8,1l-1-1.7c0.7-0.5,1.4-0.9,2.4-1.2c0.9-0.3,1.9-0.4,2.9-0.4
			C433.3,159.7,434.6,160.2,435.5,161z M433.2,170.3c0.6-0.4,1.1-0.9,1.4-1.7v-1.8h-3.6c-2,0-2.9,0.7-2.9,2c0,0.6,0.2,1.1,0.7,1.5
			c0.5,0.4,1.2,0.6,2.1,0.6S432.6,170.7,433.2,170.3z"/>
		<path class="st0" d="M449.5,171.8c-0.3,0.3-0.8,0.5-1.2,0.7s-1,0.2-1.5,0.2c-1.3,0-2.3-0.3-3-1s-1.1-1.7-1.1-3v-7h-2.2v-1.9h2.2
			v-2.8h2.3v2.8h3.6v1.9H445v6.9c0,0.7,0.2,1.2,0.5,1.6c0.3,0.4,0.8,0.6,1.5,0.6c0.7,0,1.3-0.2,1.8-0.6L449.5,171.8z"/>
		<path class="st0" d="M453.4,157c-0.3-0.3-0.4-0.6-0.4-1.1c0-0.4,0.1-0.8,0.4-1.1s0.7-0.4,1.1-0.4s0.8,0.1,1.1,0.4
			c0.3,0.3,0.4,0.6,0.4,1c0,0.4-0.1,0.8-0.4,1.1c-0.3,0.3-0.7,0.4-1.1,0.4S453.7,157.2,453.4,157z M453.4,159.8h2.3v12.7h-2.3V159.8
			z"/>
		<path class="st0" d="M472.4,159.8l-5.6,12.7h-2.4l-5.6-12.7h2.4l4.4,10.2l4.5-10.2H472.4z"/>
		<path class="st0" d="M477.4,171.9c-1-0.6-1.8-1.3-2.4-2.3c-0.6-1-0.9-2.1-0.9-3.3s0.3-2.4,0.9-3.3c0.6-1,1.4-1.8,2.4-2.3
			c1-0.6,2.1-0.8,3.4-0.8s2.4,0.3,3.4,0.8c1,0.6,1.8,1.3,2.4,2.3c0.6,1,0.9,2.1,0.9,3.3s-0.3,2.4-0.9,3.3c-0.6,1-1.4,1.8-2.4,2.3
			c-1,0.6-2.1,0.8-3.4,0.8S478.4,172.4,477.4,171.9z M483,170.1c0.6-0.4,1.2-0.9,1.5-1.6c0.4-0.7,0.6-1.5,0.6-2.3
			c0-0.9-0.2-1.7-0.6-2.3c-0.4-0.7-0.9-1.2-1.5-1.6c-0.6-0.4-1.4-0.6-2.2-0.6c-0.8,0-1.5,0.2-2.2,0.6c-0.6,0.4-1.2,0.9-1.5,1.6
			c-0.4,0.7-0.6,1.5-0.6,2.3c0,0.9,0.2,1.7,0.6,2.3c0.4,0.7,0.9,1.2,1.5,1.6c0.6,0.4,1.4,0.6,2.2,0.6
			C481.6,170.7,482.3,170.5,483,170.1z"/>
	</g>
</g>
</svg>
