<svg xmlns="http://www.w3.org/2000/svg" viewBox="0 0 1450.01 1107.52"><defs><style>.cls-1{fill:#f87673;}.cls-2{fill:#a8cfef;}.cls-3{fill:#8ac1f9;}</style></defs><g id="Capa_2" data-name="Capa 2"><g id="Capa_1-2" data-name="Capa 1"><path class="cls-1" d="M39.53,505.07C37.92,604,9.63,614.14,32.23,760c9.29,60,52.15,123.83,87.38,219.87,59,160.89,594.27,144.46,791.83,87.51C1330.68,946.47,1444.73,547.79,1446.33,518c1.48-27.35,45.14-243.78-212-324.5C969.27,110.27,1021,73.2,1002.4,1L117.47,10.15Z"/><path class="cls-2" d="M16,494.07C14.41,593-13.88,603.14,8.72,749c9.29,60,52.15,121.83,87.38,217.87,59,160.89,604.27,156.46,801.83,99.51,419.24-120.86,529.29-519.54,530.9-549.37s57-233.31-208-316.5S1017.47,72.2,998.89,0L104,9.15Z"/><path class="cls-3" d="M16.74,488.65c-1.57,98.26-30.62,105.22-.92,253.17,11.7,58.25,39.15,126,73.34,221.36,57.28,159.8,614.73,150.44,806.49,93.87,406.91-120,517.6-516,519.16-545.66s51.45-219.83-205.8-302.46S1006.44,79.22,988.41,7.5l-864-.5Z"/></g></g></svg>