<svg xmlns="http://www.w3.org/2000/svg" viewBox="0 0 291.28 73.75"><defs><style>.cls-1{fill:#fff;}</style></defs><g id="Capa_2" data-name="Capa 2"><g id="Capa_1-2" data-name="Capa 1"><path class="cls-1" d="M103,26.25,93.77,47.49H98l1.92-4.86h9.21l2,4.86h4.32l-9.15-21.24Zm-1.8,13.14,3.33-8.64,3.27,8.64Z"/><path class="cls-1" d="M130.4,27.56a7.31,7.31,0,0,0-2.51-1,14.26,14.26,0,0,0-3-.3H117.8V47.49h3.78V38.7h2.7a20.93,20.93,0,0,0,3.22-.24,7.79,7.79,0,0,0,2.72-.91,5,5,0,0,0,1.86-1.91,6.6,6.6,0,0,0,.69-3.24,6.1,6.1,0,0,0-.65-2.95A5.14,5.14,0,0,0,130.4,27.56Zm-2.06,6.58a2.85,2.85,0,0,1-1.2.9,5.13,5.13,0,0,1-1.6.36q-.87.06-1.68.06h-2.28v-6h2.7a14.14,14.14,0,0,1,1.56.09,4.56,4.56,0,0,1,1.47.41,2.78,2.78,0,0,1,1.08.9,2.63,2.63,0,0,1,.42,1.57A2.69,2.69,0,0,1,128.34,34.14Z"/><rect class="cls-1" x="136.04" y="26.25" width="3.78" height="21.24"/><path class="cls-1" d="M166,44a5.46,5.46,0,0,1-2.5.61,7.23,7.23,0,0,1-3-.6,6.89,6.89,0,0,1-2.29-1.65,7.41,7.41,0,0,1-1.49-2.49,9.13,9.13,0,0,1-.52-3.15,8.28,8.28,0,0,1,.52-3,7.35,7.35,0,0,1,1.49-2.41,6.81,6.81,0,0,1,2.29-1.62,7.39,7.39,0,0,1,3-.59,6.09,6.09,0,0,1,2.2.42,6.34,6.34,0,0,1,2.27,1.68l2.94-2.16a9.33,9.33,0,0,0-3.44-2.59,10.33,10.33,0,0,0-4-.77,12.44,12.44,0,0,0-4.52.8,10.18,10.18,0,0,0-3.54,2.26,10.41,10.41,0,0,0-2.32,3.56,12.27,12.27,0,0,0-.84,4.63,11.79,11.79,0,0,0,.84,4.53,10.08,10.08,0,0,0,5.86,5.75,12.44,12.44,0,0,0,4.52.79,10.94,10.94,0,0,0,4.41-.9,8.5,8.5,0,0,0,3.51-2.88L168.23,42A6.87,6.87,0,0,1,166,44Z"/><path class="cls-1" d="M192.11,28.68a10,10,0,0,0-3.57-2.23,12.62,12.62,0,0,0-4.56-.74,12.44,12.44,0,0,0-4.52.8,10.18,10.18,0,0,0-3.54,2.26,10.41,10.41,0,0,0-2.32,3.56,12.27,12.27,0,0,0-.84,4.63,11.79,11.79,0,0,0,.84,4.53,10.08,10.08,0,0,0,5.86,5.75A12.44,12.44,0,0,0,184,48a12.63,12.63,0,0,0,4.56-.85,10.7,10.7,0,0,0,3.57-2.3,10.39,10.39,0,0,0,2.34-3.51,11.79,11.79,0,0,0,.84-4.53,12.18,12.18,0,0,0-.84-4.62A10.32,10.32,0,0,0,192.11,28.68ZM190.8,39.87a7.39,7.39,0,0,1-1.48,2.49A6.87,6.87,0,0,1,187,44a7.31,7.31,0,0,1-3,.6,7.23,7.23,0,0,1-3-.6,6.89,6.89,0,0,1-2.29-1.65,7.41,7.41,0,0,1-1.49-2.49,9.13,9.13,0,0,1-.52-3.15,8.28,8.28,0,0,1,.52-3,7.35,7.35,0,0,1,1.49-2.41A6.81,6.81,0,0,1,181,29.72a7.39,7.39,0,0,1,3-.59,7.47,7.47,0,0,1,3,.59,6.79,6.79,0,0,1,2.31,1.62,7.32,7.32,0,0,1,1.48,2.41,8.28,8.28,0,0,1,.53,3A9.13,9.13,0,0,1,190.8,39.87Z"/><polygon class="cls-1" points="206.56 42.3 200.78 26.25 196.43 26.25 204.76 47.49 208.04 47.49 216.62 26.25 212.54 26.25 206.56 42.3"/><rect class="cls-1" x="218.81" y="26.25" width="3.78" height="21.24"/><path class="cls-1" d="M243.11,28.86a10,10,0,0,0-3.45-2,12.91,12.91,0,0,0-4-.65h-8.37V47.49h7.92a12.69,12.69,0,0,0,3.91-.64,11.39,11.39,0,0,0,3.63-2,9.89,9.89,0,0,0,3.71-8,11.31,11.31,0,0,0-.9-4.69A9.75,9.75,0,0,0,243.11,28.86Zm-1.34,11.33a6.07,6.07,0,0,1-1.84,2.22,8.07,8.07,0,0,1-2.75,1.26,13.35,13.35,0,0,1-3.34.4H231V29.67h3.45a11.9,11.9,0,0,1,3.19.41,7,7,0,0,1,2.52,1.26,5.83,5.83,0,0,1,1.67,2.23,8.42,8.42,0,0,1,.6,3.3A7.44,7.44,0,0,1,241.77,40.19Z"/><rect class="cls-1" x="248.65" y="38.58" width="7.41" height="3.06"/><polygon class="cls-1" points="259.04 31.59 261.13 34.08 265.12 30.39 265.12 47.49 268.72 47.49 268.72 26.25 265.45 26.25 259.04 31.59"/><path class="cls-1" d="M290.73,30.09a6.34,6.34,0,0,0-1.56-2.28,6.85,6.85,0,0,0-2.4-1.42,9.08,9.08,0,0,0-3-.5,8.69,8.69,0,0,0-3,.51,6.94,6.94,0,0,0-2.4,1.46,6.65,6.65,0,0,0-1.58,2.29,7.64,7.64,0,0,0-.57,3,7.32,7.32,0,0,0,.47,2.61A6.61,6.61,0,0,0,278,37.92a6.3,6.3,0,0,0,2,1.47,6.08,6.08,0,0,0,2.58.54,6.89,6.89,0,0,0,1.1-.09,2.78,2.78,0,0,0,.88-.27l.06.06-5.1,7.86h4.38l5.43-8.55a18.76,18.76,0,0,0,1.43-2.77,8,8,0,0,0,.55-3.05A7.9,7.9,0,0,0,290.73,30.09ZM287.2,34.7a4,4,0,1,1,.3-1.52A3.84,3.84,0,0,1,287.2,34.7Z"/><path class="cls-1" d="M68.42,27.93a6.27,6.27,0,0,0-5.21,4.26L60,32.48l-2.49-.7a1.73,1.73,0,0,1-1.17-1.12,20.15,20.15,0,0,0-2.84-5.49.62.62,0,0,1-.08-.56l1-2.68,3.06-3.31a4.09,4.09,0,1,0-3.72-3.45l-3.07,3.32L48,19.71a.62.62,0,0,1-.56,0A20.25,20.25,0,0,0,37,16.75h0a.59.59,0,0,1-.51-.28L34.8,13.8l-.69-3.39a5.55,5.55,0,0,0,2.51-5.83A6,6,0,0,0,29.5.11a5.74,5.74,0,0,0-4.75,6.72A5.87,5.87,0,0,0,29.1,11.2l.72,3.6-.57,3.48a20.26,20.26,0,0,0-6.12,3.92l-2.44-.44-2.42-1.82a4.08,4.08,0,1,0-2.82,4.23l2.18,1.64.81,1.65a1.38,1.38,0,0,1,0,1.19,20.23,20.23,0,0,0-1.85,8.49c0,.55,0,1.1.07,1.65a1.42,1.42,0,0,1-.58,1.26L13.37,42,9.65,43.16a5.71,5.71,0,1,0,1.74,4.77l3.5-1.1,3.2,0a1.71,1.71,0,0,1,1.45.81A20.38,20.38,0,0,0,24.16,53a1.71,1.71,0,0,1,.61,1.57l-.45,3.2L22,62.52a4.09,4.09,0,1,0,4.58,2.17l2.29-4.75,2.05-2.15A2.24,2.24,0,0,1,33,57.13a19.92,19.92,0,0,0,4,.39h0a2.27,2.27,0,0,1,1.94,1.06l1.55,2.49,1,4a5.08,5.08,0,1,0,4.91-1.26l-1-4,.2-3.21a1.82,1.82,0,0,1,.94-1.49A20.07,20.07,0,0,0,51,51.89a1.82,1.82,0,0,1,1.49-.5l1.58.19,2.52,1.69a4.08,4.08,0,1,0,6.32-4,4.13,4.13,0,0,0-3.74-.42l-2.27-1.52-.82-1.46a1.76,1.76,0,0,1-.1-1.47A20.26,20.26,0,0,0,57.17,40a1.73,1.73,0,0,1,1-1.33l2.29-1.1,3-.27a6,6,0,0,0,5.95,3.5,6.46,6.46,0,0,0,5.57-7A6.09,6.09,0,0,0,68.42,27.93ZM32.35,36.87a3.9,3.9,0,1,1,3.9-3.9A3.9,3.9,0,0,1,32.35,36.87Zm3.13,10.87a2.66,2.66,0,1,1,2.65-2.66A2.65,2.65,0,0,1,35.48,47.74Zm8.33-8.38A2.23,2.23,0,1,1,46,37.14,2.22,2.22,0,0,1,43.81,39.36Z"/></g></g></svg>