<svg xmlns="http://www.w3.org/2000/svg" xmlns:xlink="http://www.w3.org/1999/xlink" viewBox="0 0 1762.68 1635.75"><defs><style>.cls-1{opacity:0.45;}.cls-2{fill:url(#Degradado_sin_nombre_6);}.cls-3{fill:url(#Degradado_sin_nombre_6-2);}</style><linearGradient id="Degradado_sin_nombre_6" x1="965.63" y1="2376.36" x2="1844.43" y2="2376.36" gradientTransform="matrix(0.84, -0.54, -0.96, -1.5, 2435.16, 4742.68)" gradientUnits="userSpaceOnUse"><stop offset="0" stop-color="#f5f5f5"/><stop offset="1" stop-color="#daecfb"/></linearGradient><linearGradient id="Degradado_sin_nombre_6-2" x1="118.61" y1="1436.83" x2="620.95" y2="1436.83" gradientTransform="matrix(-0.81, -1.36, 1.08, -0.65, -859.34, 2790.27)" xlink:href="#Degradado_sin_nombre_6"/></defs><g id="Capa_2" data-name="Capa 2"><g id="Capa_1-2" data-name="Capa 1"><g class="cls-1"><path class="cls-2" d="M1357.21,697.63c-70.67,5.19-103.52,41.06-145.88,93.61-6.57,8.15-13,17-23,19.81-9.31,2.62-21-.19-32.37-3q-32.25-8.12-64.65-16.9c-26.44-7.18-61-22.36-76.49-56.65-10.65-23.53-6-44.05,1.88-58.16s18.69-25.88,19.53-46c1-24.25-12.56-54.76-20.22-82.81-25.13-92,14.73-152.36,64.82-182.73,66.72-40.44,152.79-48.14,218.37-90.39,88.17-56.8,133.43-171.69,201.38-256.63,7.91-9.9,17.1-19.73,31.58-17.31,11.3,1.88,24,11,36,20.65,66.67,53.87,128.23,135.31,163.2,219.83s41.78,170.48,14.86,222.26c-15.56,29.94-41.35,48.12-70.71,58.85-51,18.62-113.75,15.51-180.35-8.94-17.38-6.39-36-14.28-49.32-9.42-17.34,6.32-20.56,32.12-22.67,56-5.52,62.58-15.74,131.12-65.93,138"/></g><g class="cls-1"><path class="cls-3" d="M634,1635.62c-132.43-3.76-264.07-47-392.66-89.71-29.68-9.85-59.76-20.68-85.28-40-28.39-21.49-49.21-52-69.09-82-30.62-46.25-60.92-93.93-76.68-146.81S-4.82,1164.52,23.9,1121.25c5.18-7.8,11.43-15.15,19.77-19.13,14.44-6.9,32-2.48,48,2L288,1159.37c38.7,10.89,77.73,21.9,114,40.68,61.95,32.06,112.89,85.18,174.4,118.27,39.66,21.33,82.67,33.76,123.37,52.53s80.8,45.76,102.89,86.15C802.63,1457,841.14,1641.5,634,1635.62Z"/></g></g></g></svg>