<?xml version="1.0" encoding="utf-8"?>
<!-- Generator: Adobe Illustrator 24.1.1, SVG Export Plug-In . SVG Version: 6.00 Build 0)  -->
<svg version="1.1" id="Capa_1" focusable="false" xmlns="http://www.w3.org/2000/svg" xmlns:xlink="http://www.w3.org/1999/xlink"
	 x="0px" y="0px" viewBox="0 0 512 427" style="enable-background:new 0 0 512 427;" xml:space="preserve">
<style type="text/css">
	.st0{fill:#A9DAFF;}
</style>
<path class="st0" d="M396.8,311h22.4c6.4,0,12.8-6.4,12.8-12.8V67.8c0-6.4-6.4-12.8-12.8-12.8h-22.4c-6.4,0-12.8,6.4-12.8,12.8
	v230.4C384,304.6,390.4,311,396.8,311z M204.8,311h22.4c6.4,0,12.8-6.4,12.8-12.8V99.8c0-6.4-6.4-12.8-12.8-12.8h-22.4
	c-6.4,0-12.8,6.4-12.8,12.8v198.4C192,304.6,198.4,311,204.8,311z M300.8,311h22.4c6.4,0,12.8-6.4,12.8-12.8V163.8
	c0-6.4-6.4-12.8-12.8-12.8h-22.4c-6.4,0-12.8,6.4-12.8,12.8v134.4C288,304.6,294.4,311,300.8,311z M496,359H48V39
	c0-8.8-7.2-16-16-16H16C7.2,23,0,30.2,0,39v336c0,17.7,14.3,32,32,32h464c8.8,0,16-7.2,16-16v-16C512,366.2,504.8,359,496,359z
	 M108.8,311h22.4c6.4,0,12.8-6.4,12.8-12.8v-70.4c0-6.4-6.4-12.8-12.8-12.8h-22.4c-6.4,0-12.8,6.4-12.8,12.8v70.4
	C96,304.6,102.4,311,108.8,311z"/>
</svg>
