<svg xmlns="http://www.w3.org/2000/svg" viewBox="0 0 241.42 250.98"><defs><style>.cls-1{fill:#a8cfef;opacity:0.65;}.cls-2{fill:#282828;}</style></defs><g id="Capa_2" data-name="Capa 2"><g id="Capa_1-2" data-name="Capa 1"><path class="cls-1" d="M195.34,150.65c11.23-50.78-5.63-77.06-28.2-90.54.08-13.81-5.42-30.94-27.88-44-.56-.32-1.13-.62-1.71-.89C126,9.78,13.39-40.53,4.83,78A166.58,166.58,0,0,0,4.43,95C.54,107-1,122,.69,140.74c11.37,124.72,128.48,74.9,130.45,74.11l.06,0C157.72,214.85,184.26,200.71,195.34,150.65Z"/><path class="cls-1" d="M237.85,176.3c11.23-50.79-5.62-77.06-28.2-90.55.08-13.8-5.41-30.93-27.87-43.95-.56-.32-1.13-.62-1.72-.89C168.51,35.42,55.9-14.88,47.34,103.62a169.48,169.48,0,0,0-.4,17.07c-3.88,11.94-5.45,26.93-3.74,45.69,11.37,124.73,128.48,74.91,130.46,74.11l.05,0C200.23,240.5,226.78,226.36,237.85,176.3Z"/><path class="cls-2" d="M70.61,140.37c0,.59,0,1.17,0,1.75h37.7v-1.75Z"/><path class="cls-2" d="M148.56,142.12c0-.58,0-1.16.05-1.75H110.82v1.75Z"/><path class="cls-2" d="M148.58,137.2c0-.59-.05-1.17-.08-1.75H110.82v1.75Z"/><path class="cls-2" d="M70.71,135.45c0,.58-.06,1.16-.08,1.75h37.73v-1.75Z"/><path class="cls-2" d="M71.17,130.52c-.08.58-.15,1.17-.21,1.75h37.4v-1.75Z"/><path class="cls-2" d="M148.25,132.27c-.06-.58-.13-1.17-.2-1.75H110.82v1.75Z"/><path class="cls-2" d="M96.88,126.07a2.59,2.59,0,0,1-.32-.47H72c-.12.58-.24,1.16-.34,1.75h27.5A3.77,3.77,0,0,1,96.88,126.07Z"/><path class="cls-2" d="M119,127.33l-.09,0h28.67c-.11-.59-.22-1.17-.34-1.75H122.37l-.16.19A5.41,5.41,0,0,1,119,127.33Z"/><path class="cls-2" d="M123.17,122.14c0,.1,0,.19,0,.28h23.27c-.15-.59-.32-1.17-.49-1.75H123c.07.43.13.84.19,1.25Z"/><path class="cls-2" d="M96.29,120.67H73.23c-.17.58-.33,1.16-.49,1.75H96a10.12,10.12,0,0,1,.14-1C96.17,121.14,96.23,120.92,96.29,120.67Z"/><path class="cls-2" d="M74.9,115.75c-.22.57-.44,1.16-.65,1.74H97.17c.22-.61.44-1.19.68-1.74Z"/><path class="cls-2" d="M145,117.49c-.21-.58-.42-1.17-.65-1.74H122.05c.14.59.26,1.18.37,1.74Z"/><path class="cls-2" d="M143,112.57c-.27-.59-.55-1.17-.84-1.75H120.68c.2.6.38,1.18.55,1.75Z"/><path class="cls-2" d="M77.07,110.82c-.28.58-.57,1.16-.84,1.75H99.47a20.43,20.43,0,0,1,1.17-1.75Z"/><path class="cls-2" d="M99.11,106.55a3,3,0,0,1,.17-.65H79.88c-.37.57-.73,1.15-1.07,1.74H99.07A3.67,3.67,0,0,1,99.11,106.55Z"/><path class="cls-2" d="M140.41,107.64q-.53-.89-1.08-1.74H118.66c.29.59.54,1.17.79,1.74Z"/><path class="cls-2" d="M116.79,102.72h20.33c-.45-.6-.92-1.18-1.39-1.75H114.94A9.71,9.71,0,0,1,116.79,102.72Z"/><path class="cls-2" d="M103.31,101H83.48c-.47.57-.94,1.15-1.39,1.75h19.25s0,0,.06-.06A9.06,9.06,0,0,1,103.31,101Z"/><path class="cls-2" d="M130.89,96H88.32c-.65.56-1.29,1.14-1.91,1.75H132.8C132.18,97.18,131.54,96.6,130.89,96Z"/><path class="cls-2" d="M124.72,91.69c-.36-.2-.71-.37-1.07-.56H95.56c-.36.19-.71.36-1.07.56-.66.37-1.32.77-2,1.19h34.17C126,92.46,125.39,92.06,124.72,91.69Z"/><path class="cls-2" d="M112.06,75.28c6.73-1.07,7.48.87,7.48.87a.59.59,0,0,0,.72.31s.46,0,.23-.6c0,0-.74-2.2-4.32-2.58a14.11,14.11,0,0,0-3.88.11c-.59.1-.76,1.42-.76,1.42-.09.59.53.47.53.47"/><path class="cls-2" d="M106.31,76.59a8.17,8.17,0,0,0-2.7-.3c-3,.1-3.85,2-3.85,2-.26.64.27.69.27.69a.7.7,0,0,0,.85-.35s.17-.54,1.42-.85a1.56,1.56,0,1,0,3,.58,1.51,1.51,0,0,0-.13-.61,1.93,1.93,0,0,1,1.12,1c.11.22.34.32.92.32s.47-.41.47-.41a3,3,0,0,0-1.38-2.06"/><path class="cls-2" d="M111.92,79.06c.58,0,.81-.1.92-.32a2,2,0,0,1,1.12-1,1.6,1.6,0,0,0-.13.62,1.56,1.56,0,1,0,3-.58c1.25.31,1.43.85,1.43.85a.68.68,0,0,0,.84.35s.54,0,.27-.69c0,0-.8-1.89-3.85-2a8.17,8.17,0,0,0-2.7.3,3,3,0,0,0-1.38,2.06s-.16.41.47.41"/><path class="cls-2" d="M98.88,76.46a.59.59,0,0,0,.72-.31s.75-1.94,7.48-.87c0,0,.61.12.53-.47,0,0-.17-1.32-.77-1.42a14,14,0,0,0-3.87-.11c-3.58.38-4.32,2.59-4.32,2.59-.23.54.23.59.23.59"/><path class="cls-2" d="M155.11,148.09a.8.8,0,0,0-.55-.19c.16-.33.3-.67.43-1a16,16,0,0,0,.89-5.33.77.77,0,0,0-.34-.66.81.81,0,0,0-.54-.13c.11-.32.22-.66.31-1a16.14,16.14,0,0,0,.36-5.38.79.79,0,0,0-.42-.62.71.71,0,0,0-.55-.07c.1-.39.18-.79.25-1.19a16.3,16.3,0,0,0-.17-5.4.81.81,0,0,0-.47-.58.86.86,0,0,0-.42-.05c.05-.27.09-.55.12-.83a15.82,15.82,0,0,0-.42-5.38.78.78,0,0,0-.5-.56.77.77,0,0,0-.73.11h0a11.29,11.29,0,0,0,0-1.3,16,16,0,0,0-1.16-5.28.79.79,0,0,0-.57-.48.75.75,0,0,0-.6.12c0-.4-.05-.81-.1-1.21a16.3,16.3,0,0,0-1.7-5.12.82.82,0,0,0-.62-.43.85.85,0,0,0-.59.18,8.76,8.76,0,0,0-.23-1.11,16,16,0,0,0-2.29-4.9.78.78,0,0,0-1.3,0,11.24,11.24,0,0,0-.48-1.29,15.88,15.88,0,0,0-3.05-4.47.79.79,0,0,0-.74-.23.76.76,0,0,0-.47.31,12,12,0,0,0-.71-1.26,16,16,0,0,0-3.65-3.9.79.79,0,0,0-.74-.12.74.74,0,0,0-.45.4,9,9,0,0,0-4.3-3l1,.07a12.06,12.06,0,0,0,3.77-.34,1,1,0,0,0-.24-2,8.46,8.46,0,0,1-4.4-1.21l-.67-.36,5.57-.83a1,1,0,0,0,0-2l-5.52-.79c.64-.17,1.38-.39,2.15-.66a11.84,11.84,0,0,0,3.35-1.76,1,1,0,0,0,.23-1.26,1,1,0,0,0-1.2-.44,8.52,8.52,0,0,1-4.53.56l-.75-.07,4.82-2.89a1,1,0,0,0,.41-1.24,1,1,0,0,0-1.16-.58L126,72.32c.53-.4,1.14-.89,1.75-1.43A11.7,11.7,0,0,0,130.17,68a1,1,0,0,0-1.54-1.2,8.47,8.47,0,0,1-4,2.26l-.71.21,3.34-4.5a1,1,0,0,0-.09-1.29,1,1,0,0,0-1.3-.1l-4.5,3.37c.33-.59.71-1.28,1.07-2a11.79,11.79,0,0,0,1.12-3.62,1,1,0,0,0-.73-1,1,1,0,0,0-1.16.54,8.41,8.41,0,0,1-2.8,3.6c-.18.15-.37.3-.56.47l1.36-5.43a1,1,0,0,0-1.82-.75L115,63.3c.09-.66.17-1.46.22-2.28a11.75,11.75,0,0,0-.36-3.77,1,1,0,0,0-1.94.25,8.47,8.47,0,0,1-1.2,4.4c-.11.2-.23.41-.34.63L110.57,57a1,1,0,0,0-1-.85h0a1,1,0,0,0-1,.85l-.77,5.5c-.17-.63-.39-1.37-.65-2.12A11.66,11.66,0,0,0,105.42,57a1,1,0,0,0-1.7,1,8.42,8.42,0,0,1,.56,4.53c0,.25-.06.5-.08.77l-2.91-4.84a1,1,0,0,0-1.23-.4,1,1,0,0,0-.58,1.16l1.38,5.4c-.4-.53-.88-1.13-1.41-1.73a11.43,11.43,0,0,0-2.92-2.41,1,1,0,0,0-1.25.26,1,1,0,0,0,0,1.28,8.37,8.37,0,0,1,2.25,4c.07.24.14.48.22.73l-4.52-3.35a1,1,0,0,0-1.3.1,1,1,0,0,0-.09,1.29l3.36,4.48c-.58-.33-1.26-.7-2-1.06a11.79,11.79,0,0,0-3.62-1.12,1,1,0,0,0-1,.73,1,1,0,0,0,.54,1.16,8.43,8.43,0,0,1,3.59,2.8l.48.58L87.75,71A1,1,0,0,0,87,72.77l4.83,2.87c-.66-.09-1.44-.17-2.26-.22a11.81,11.81,0,0,0-3.77.36,1,1,0,0,0,.25,1.94,8.43,8.43,0,0,1,4.39,1.2l.65.35-5.55.81a1,1,0,0,0,0,2l5.59.81c-.65.18-1.41.4-2.19.67a11.27,11.27,0,0,0-3.34,1.78,1,1,0,0,0-.23,1.25,1,1,0,0,0,1.2.44,9.2,9.2,0,0,1,2.94-.65A22.46,22.46,0,0,0,87,88.76q-.33.43-.63.87A.75.75,0,0,0,86,89.3a.76.76,0,0,0-.73.12,16,16,0,0,0-3.74,3.94,12.82,12.82,0,0,0-.7,1.25.79.79,0,0,0-.52-.35.81.81,0,0,0-.71.24,15.88,15.88,0,0,0-3,4.47,10.24,10.24,0,0,0-.46,1.23.82.82,0,0,0-.51-.22.78.78,0,0,0-.67.32,16,16,0,0,0-2.49,4.79,11.57,11.57,0,0,0-.31,1.26.76.76,0,0,0-.66-.26.75.75,0,0,0-.62.42,15.79,15.79,0,0,0-1.75,5.1c-.06.41-.09.82-.11,1.23a.81.81,0,0,0-.67-.16.77.77,0,0,0-.56.49,16.13,16.13,0,0,0-1.09,5.29,11.91,11.91,0,0,0,0,1.2.79.79,0,0,0-.67-.06.77.77,0,0,0-.49.55,16.17,16.17,0,0,0-.43,5.39c0,.31.08.61.14.92a.76.76,0,0,0-.34.05.83.83,0,0,0-.48.58,16,16,0,0,0-.16,5.4,12.17,12.17,0,0,0,.25,1.23.71.71,0,0,0-.31.08.77.77,0,0,0-.43.61,15.7,15.7,0,0,0,.17,5.39c.08.35.17.7.28,1a.74.74,0,0,0-.52.11.82.82,0,0,0-.37.65,16,16,0,0,0,.75,5.35,11,11,0,0,0,.53,1.32l-.1,0a.76.76,0,0,0-.72.17.79.79,0,0,0-.25.71,16.09,16.09,0,0,0,1.66,5.14c.16.28.32.55.49.81a.75.75,0,0,0-.36.22.77.77,0,0,0-.2.72,16.15,16.15,0,0,0,2.05,5,10.88,10.88,0,0,0,.68.95.78.78,0,0,0-.54.31.78.78,0,0,0-.11.74,16.18,16.18,0,0,0,2.61,4.73c.23.28.48.56.73.81a.8.8,0,0,0-.48,1.11,16,16,0,0,0,3.15,4.4c.26.24.52.48.79.69a.78.78,0,0,0-.4.4.77.77,0,0,0,.06.75A16.07,16.07,0,0,0,77.26,180a12.17,12.17,0,0,0,1.23.84l-.16.05a.78.78,0,0,0-.51.56.82.82,0,0,0,.2.73,18.89,18.89,0,0,0,4.19,3.35,11.16,11.16,0,0,0,3.45,1.3,7.52,7.52,0,0,0,2.79,0l.15,0a41.72,41.72,0,0,0,7.7,4.29,38.49,38.49,0,0,0,6.82,2.16l1.38.26a6,6,0,0,1-2.62-1.71,3.28,3.28,0,0,1-.31-.45,35.79,35.79,0,0,1-4.7-1.62,39.48,39.48,0,0,1-7.36-4.09l0-.09a8,8,0,0,0-.27-2.38,34.58,34.58,0,0,0,4.85,3.39,32.84,32.84,0,0,0,6.94,2.9c0-.14,0-.28,0-.42a3.07,3.07,0,0,1,.33-1.1,31.46,31.46,0,0,1-6.47-2.72,39.16,39.16,0,0,1-12-10.69,48.09,48.09,0,0,1-3.37-5.08c2.67-1.18,8.62-3.87,13.83-6.55a2.78,2.78,0,0,0,.2.68,3.06,3.06,0,0,0,2.48,1.55,7.13,7.13,0,0,0,.84.08A3.28,3.28,0,0,0,99.06,167a6.58,6.58,0,0,0,1.15.24,2.45,2.45,0,0,0,.92,1.14,4.72,4.72,0,0,0,3.27.48,3,3,0,0,0,1.73,1.06,3.66,3.66,0,0,0,.65.06,4.58,4.58,0,0,0,1.58-.31V179a1.23,1.23,0,1,0,2.46,0v-9.71a5.09,5.09,0,0,0,2.94-.24,4.7,4.7,0,0,0,1.26-.73,3.41,3.41,0,0,0,3.12-.94,4.79,4.79,0,0,0,.64-.87,3.77,3.77,0,0,0,3.2-1.25,4.17,4.17,0,0,0,.62-1,3.58,3.58,0,0,0,2.45-1,3.07,3.07,0,0,0,.68-.94c4.21,3.26,10.76,6.15,13.73,7.37a49.5,49.5,0,0,1-3.19,4.77,39.19,39.19,0,0,1-12,10.69,31,31,0,0,1-6.47,2.72,3.07,3.07,0,0,1,.33,1.1,3,3,0,0,1,0,.42,32.92,32.92,0,0,0,7-2.9,35.14,35.14,0,0,0,4.9-3.43,7.62,7.62,0,0,0-.29,2.41.43.43,0,0,0,0,.11,31.83,31.83,0,0,1-5.41,3.28,35.51,35.51,0,0,1-6.45,2.43l-.27.07c-.09.12-.17.25-.27.37a6.21,6.21,0,0,1-2.68,1.73,35.49,35.49,0,0,0,3.63-.76,36.8,36.8,0,0,0,6.73-2.53,34.38,34.38,0,0,0,5.65-3.44l.12,0a7.57,7.57,0,0,0,2.8,0,11.16,11.16,0,0,0,3.45-1.3,18.89,18.89,0,0,0,4.19-3.35.82.82,0,0,0,.2-.73.78.78,0,0,0-.5-.56l-.13,0A12.76,12.76,0,0,0,142,180a16.07,16.07,0,0,0,3.59-4.05.77.77,0,0,0,.06-.75.82.82,0,0,0-.4-.4,10.13,10.13,0,0,0,.78-.69,16,16,0,0,0,3.16-4.4.79.79,0,0,0-.59-1.13c.27-.28.54-.57.79-.88a15.73,15.73,0,0,0,2.61-4.73.75.75,0,0,0-.09-.71.78.78,0,0,0-.61-.35h0c.23-.28.45-.58.66-.89a15.8,15.8,0,0,0,2.12-5,.78.78,0,0,0-.81-1,11.08,11.08,0,0,0,.6-1.06,16.25,16.25,0,0,0,1.49-5.2.79.79,0,0,0-.27-.69m-.81-12.5s0,0,0,0,0,0,0,0a13.88,13.88,0,0,1-.38,3.74,9.12,9.12,0,0,1-1.34,3,6.89,6.89,0,0,1-1.78,1.8h-.05c-1.92-2.17-2.1-5.39-2-7.11,0,0,0,0,0,0h0a12.63,12.63,0,0,1,1.73,2.51.6.6,0,0,0,.56.33.61.61,0,0,0,.52-.39A9.24,9.24,0,0,1,154.3,135.59Zm-.76-7.15h0s0,0,0,0a13.81,13.81,0,0,1,0,3.75,9,9,0,0,1-1,3.14,7,7,0,0,1-1.62,2h-.06c-1.89-1.56-2.46-4.95-2.63-6.84a.08.08,0,0,1,0,0s0,0,0,0a12.15,12.15,0,0,1,1.9,2.27.59.59,0,0,0,1.07-.16A9.35,9.35,0,0,1,153.54,128.44Zm-1.13-6.79s0,0,0,0,0,0,0,0a13.8,13.8,0,0,1,.17,3.75,9.53,9.53,0,0,1-.9,3.19,7,7,0,0,1-1.5,2h0a9,9,0,0,1-2.7-4.75,14.26,14.26,0,0,1-.35-2s0,0,0,0a0,0,0,0,1,0,0,12.84,12.84,0,0,1,2.08,2.24.56.56,0,0,0,.6.24.58.58,0,0,0,.45-.46A9.48,9.48,0,0,1,152.41,121.65ZM98,122.26c0-.16,0-.31.08-.47a24.16,24.16,0,0,1,4.15-9.75,15.75,15.75,0,0,1,2.45-2.67,4.58,4.58,0,0,0,.43-.34,1,1,0,0,0-1.23-1.61s-.21.15-.47.37a1.88,1.88,0,0,1-1.9.41,1.19,1.19,0,0,1-.43-1.31,7.05,7.05,0,0,1,1.76-2.84s0,0,0,0a8.79,8.79,0,0,1,6.06-2.8h.1a7.49,7.49,0,0,1,2.62.38,7.84,7.84,0,0,1,4.56,4,43.74,43.74,0,0,1,3.4,8.86,14.42,14.42,0,0,1-3.89-2.14,1,1,0,0,0-1.43.13,1,1,0,0,0,.14,1.43,15.42,15.42,0,0,0,5.71,2.83c.27,1.27.48,2.47.66,3.61a15.15,15.15,0,0,0-3.23-1.14,16.15,16.15,0,0,1-1.74-.52,17.57,17.57,0,0,1-3.91-2.26,1,1,0,0,0-1.26,1.59,20.54,20.54,0,0,0,4.42,2.55,15.3,15.3,0,0,0,2,.6c2.69.71,3.93,1.28,4,2.67a1.85,1.85,0,0,1-.36.6c-.87.94-2.77,1-3.42,1h-2.56a10.79,10.79,0,0,1-5.28-1.55C103.94,120.32,101.47,120.75,98,122.26Zm10.08,3.16h-8a2.07,2.07,0,0,1-1.71-.63,1.84,1.84,0,0,1-.24-.39C101.68,122.81,103.34,122.39,108.11,125.42ZM110.82,139v-11.6h6.71a9.79,9.79,0,0,0,1.45-.11,5.53,5.53,0,0,0,3.23-1.54,4.1,4.1,0,0,0,.83-1.45,1.21,1.21,0,0,0,0-.18,4.94,4.94,0,0,0,.08-2l0-.22a50.82,50.82,0,0,0-5.08-17.24,9.64,9.64,0,0,0-9.13-5.51,10.72,10.72,0,0,0-7.53,3.49,8.86,8.86,0,0,0-2.29,3.89,3.16,3.16,0,0,0,1.43,3.41,2.9,2.9,0,0,0,.57.25,25.76,25.76,0,0,0-5,11.19,7.58,7.58,0,0,0-.12,2.48.57.57,0,0,0,0,.18,4.11,4.11,0,0,0,.85,2,4,4,0,0,0,3.28,1.36h8.2v18.68c-2.15-.06-3.79.77-5.82,2.21-2.9,1.93-12.67,3.86-29,5.72a65.3,65.3,0,0,1-1.73-15,63.81,63.81,0,0,1,3-19.56,53,53,0,0,1,8.15-15.94,39.16,39.16,0,0,1,12-10.69,29.47,29.47,0,0,1,29.3,0,39.19,39.19,0,0,1,12,10.69,53.2,53.2,0,0,1,8.15,15.94,65.41,65.41,0,0,1,1.21,34.78c-10-.57-21.73-4.26-22.08-4.37-.84-.28-1.61-.56-2.28-.8-2.47-.89-4.25-1.54-6.35-1.44h-.36a13.5,13.5,0,0,0-3.74-1.26Zm15.47-52.38a14.53,14.53,0,0,1-2.6.75,10,10,0,0,1-1.91.19,6.18,6.18,0,0,1-3.66-1.06.05.05,0,0,1,0,0s0,0,0,0a8.52,8.52,0,0,1,2.16-.85,7.7,7.7,0,0,1,3.1-.09,9.1,9.1,0,0,1,2.92,1,.05.05,0,0,1,0,0S126.31,86.65,126.29,86.66Zm1.43,4a0,0,0,0,1,0,0,.05.05,0,0,1,0,0,7.16,7.16,0,0,1-1.89.35h-.28a8,8,0,0,1-4.93-1.85.05.05,0,0,1,0,0s0,0,0,0a8.5,8.5,0,0,1,2.13-.4A6,6,0,0,1,127.72,90.69Zm-7.83-6.28a11.69,11.69,0,0,1-3.55.94.6.6,0,0,0-.5.44.58.58,0,0,0,.24.62,12.88,12.88,0,0,1,2.33,2.16,0,0,0,0,1,0,.05.05.05,0,0,1,0,0h0a9.25,9.25,0,0,1-6.88-3.14,0,0,0,0,1,0,0,5.62,5.62,0,0,1,1.89-1.15,10.71,10.71,0,0,1,6.5,0s0,0,0,0S119.91,84.41,119.89,84.41Zm-7.31-1.2a10.26,10.26,0,0,1-3.34,1.63.59.59,0,0,0,0,1.11,10.18,10.18,0,0,1,2.64,1.54s0,0,0,0,0,0,0,0c-.41,0-.9.07-1.45.07A9.81,9.81,0,0,1,104.51,86s0,0,0,0a5.46,5.46,0,0,1,1.6-1.5,10.79,10.79,0,0,1,6.46-1.27,0,0,0,0,1,0,0S112.59,83.2,112.58,83.21Zm-7.52.13a8,8,0,0,1-3,2.3.56.56,0,0,0-.32.6.58.58,0,0,0,.47.5,12.26,12.26,0,0,1,2.92,1,.05.05,0,0,1,0,0,0,0,0,0,1,0,0,13.44,13.44,0,0,1-1.94.49,11.86,11.86,0,0,1-2,.19,8.29,8.29,0,0,1-3.5-.72,0,0,0,0,1,0,0,5.39,5.39,0,0,1,1.23-1.8A10.85,10.85,0,0,1,105,83.27l0,0A0,0,0,0,1,105.06,83.34Zm-7,1.24A9.42,9.42,0,0,1,95.39,88a.58.58,0,0,0,.38,1h0a10.64,10.64,0,0,1,1.49.11,8.62,8.62,0,0,1,1.58.33s0,0,0,0,0,0,0,0a15.71,15.71,0,0,1-1.86.79,10.71,10.71,0,0,1-3.53.64,7.62,7.62,0,0,1-2.08-.28,0,0,0,0,1,0,0c.25-1.23,1.39-4.29,6.63-6.06,0,0,0,0,0,0A0,0,0,0,1,98,84.58Zm52.23,30.19,0,0s0,0,0,0a14.35,14.35,0,0,1,.69,3.7,9.16,9.16,0,0,1-.45,3.27,7.05,7.05,0,0,1-1.2,2.23h-.06a8.76,8.76,0,0,1-3.4-4.38,14.6,14.6,0,0,1-.58-1.91,0,0,0,0,1,0,0h0a12.56,12.56,0,0,1,2.4,2,.58.58,0,0,0,.63.16.6.6,0,0,0,.39-.51A9.28,9.28,0,0,1,150.26,114.77Zm-4.12-1.45a.6.6,0,0,0,.34-.55,9.19,9.19,0,0,1,1-4.6s0,0,0,0l0,0a14,14,0,0,1,1.06,3.61,9.29,9.29,0,0,1-.1,3.3,7,7,0,0,1-1,2.33s0,0,0,0h0a8.76,8.76,0,0,1-3.84-4,12.51,12.51,0,0,1-.77-1.84,0,0,0,0,1,0,0s0,0,0,0a12.54,12.54,0,0,1,2.59,1.7A.56.56,0,0,0,146.14,113.32Zm-2.93-6h0a.58.58,0,0,0,.28-.6,9.35,9.35,0,0,1,.43-4.68l0,0a0,0,0,0,1,0,0,13.51,13.51,0,0,1,1.48,3.47,9.09,9.09,0,0,1,.29,3.28,7,7,0,0,1-.69,2.43s0,0,0,0h0a8.72,8.72,0,0,1-4.4-3.58,12,12,0,0,1-1-1.81.06.06,0,0,1,0,0s0,0,0,0a9.35,9.35,0,0,1,2.83,1.47A.59.59,0,0,0,143.21,107.27Zm-4.39-5.62a.59.59,0,0,0,.9-.65,10.39,10.39,0,0,1-.3-4.64,0,0,0,0,1,0,0s0,0,.05,0a14.18,14.18,0,0,1,2,3.13,9.32,9.32,0,0,1,.81,3.2,7.11,7.11,0,0,1-.28,2.5s0,0,0,0h0a8.82,8.82,0,0,1-4.8-2.83,13.06,13.06,0,0,1-1.35-1.68v0a0,0,0,0,1,0,0A6.67,6.67,0,0,1,138.82,101.65Zm-4.38-5a.59.59,0,0,0,.73-.82,9.33,9.33,0,0,1-1.08-4.56s0,0,0,0a0,0,0,0,1,0,0A13.87,13.87,0,0,1,136.6,94a9.53,9.53,0,0,1,1.32,3,7.43,7.43,0,0,1,.17,2.58s0,0,0,0H138a8.51,8.51,0,0,1-4.92-2,15,15,0,0,1-1.69-1.52s0,0,0,0,0,0,0,0h.22A8.8,8.8,0,0,1,134.44,96.64Zm-1.74-4.56a7.8,7.8,0,0,1,.51,2.86,0,0,0,0,1,0,0h-.31c-2.41,0-5.2-1.62-6.7-2.61,0,0,0,0,0,0a0,0,0,0,1,0,0,7.84,7.84,0,0,1,3,0,.58.58,0,0,0,.63-.26.59.59,0,0,0,0-.68,11.78,11.78,0,0,1-1.86-3.5s0,0,0,0,0,0,0,0A7.19,7.19,0,0,1,132.7,92.08ZM87.83,85.34a11,11,0,0,1,1.51-.65,31.65,31.65,0,0,1,3.46-1,9.26,9.26,0,0,0,2.66-1,.25.25,0,0,0,.1-.25.21.21,0,0,0-.19-.18L87.3,81.06l8.07-1.18a.24.24,0,0,0,.2-.23.24.24,0,0,0-.2-.23,13.42,13.42,0,0,1-3.11-1c-.46-.21-.85-.42-1.23-.63a9,9,0,0,0-3.18-1.17,11.06,11.06,0,0,1,1.65,0,31.19,31.19,0,0,1,3.57.42,9.08,9.08,0,0,0,2.85.05.23.23,0,0,0,.08-.43l-7-4.16,7.9,2a.24.24,0,0,0,.28-.13.23.23,0,0,0-.1-.29A13.89,13.89,0,0,1,94.57,72c-.34-.37-.62-.71-.89-1a9.25,9.25,0,0,0-2.49-2.31,11.71,11.71,0,0,1,1.53.62A32.15,32.15,0,0,1,95.86,71a9.19,9.19,0,0,0,2.62,1.15.23.23,0,0,0,.24-.1.22.22,0,0,0,0-.27L93.83,65.3l6.55,4.84a.24.24,0,0,0,.31,0,.23.23,0,0,0,0-.3A13.36,13.36,0,0,1,99.19,67c-.18-.47-.31-.9-.43-1.31a9.19,9.19,0,0,0-1.41-3.09,11.51,11.51,0,0,1,1.18,1.16,33.37,33.37,0,0,1,2.22,2.82,8.91,8.91,0,0,0,2,2.06.22.22,0,0,0,.27,0,.23.23,0,0,0,.09-.25l-2-7.88,4.21,7a.24.24,0,0,0,.29.1.24.24,0,0,0,.14-.27,12.85,12.85,0,0,1-.31-3.24c0-.5.06-.94.11-1.37a9,9,0,0,0-.12-3.39,12,12,0,0,1,.64,1.52,32.8,32.8,0,0,1,1,3.46,9.26,9.26,0,0,0,1,2.66.24.24,0,0,0,.25.1.23.23,0,0,0,.18-.19l1.13-8,1.17,8a.24.24,0,0,0,.47,0,13.1,13.1,0,0,1,.94-3.11c.21-.46.42-.85.63-1.23A9.09,9.09,0,0,0,114,59.3,11.06,11.06,0,0,1,114,61a34.26,34.26,0,0,1-.41,3.57,9.66,9.66,0,0,0-.06,2.85.25.25,0,0,0,.19.19.24.24,0,0,0,.25-.11l4.16-7-2,7.89a.23.23,0,0,0,.13.28.24.24,0,0,0,.29-.1A13.52,13.52,0,0,1,118.63,66c.36-.35.71-.63,1-.9A8.81,8.81,0,0,0,122,62.63a10.85,10.85,0,0,1-.61,1.54,34.34,34.34,0,0,1-1.76,3.14,9.12,9.12,0,0,0-1.14,2.61.24.24,0,0,0,.1.25.24.24,0,0,0,.27,0l6.51-4.87-4.85,6.54a.23.23,0,0,0,.33.32,13.67,13.67,0,0,1,2.87-1.52c.47-.18.9-.31,1.31-.43a9.19,9.19,0,0,0,3.09-1.41A13.81,13.81,0,0,1,127,70a33.16,33.16,0,0,1-2.83,2.22,9.14,9.14,0,0,0-2.06,2,.26.26,0,0,0,0,.27.22.22,0,0,0,.25.09l7.88-2-7,4.19a.25.25,0,0,0-.1.29.24.24,0,0,0,.28.14,13.8,13.8,0,0,1,3.23-.31c.51,0,.95.06,1.37.11a9,9,0,0,0,3.39-.12,14.19,14.19,0,0,1-1.51.65,34.81,34.81,0,0,1-3.47,1,9,9,0,0,0-2.65,1,.23.23,0,0,0-.11.24.22.22,0,0,0,.2.18l8,1.16-8.06,1.2a.24.24,0,0,0-.19.23.23.23,0,0,0,.19.24,12.86,12.86,0,0,1,3.11,1c.46.21.85.42,1.23.62a8.94,8.94,0,0,0,3.17,1.19,11.06,11.06,0,0,1-1.65,0,32.85,32.85,0,0,1-3.56-.43l-.2,0a9.62,9.62,0,0,0-3.94-.83,1,1,0,0,0,0-.17.64.64,0,0,0-.41-.45,17.48,17.48,0,0,0-4.24-1h-1a10.13,10.13,0,0,0-1.85.14s0,0,0,0a.75.75,0,0,0,0-.26s0,0,0,0a.65.65,0,0,0-.49-.34l-.38,0h-.12l-.25,0h-.15l-.23,0a15.18,15.18,0,0,0-4.16.19c-.34.07-.68.15-1,.25l-.07,0-.16,0-.07,0-.22.07-.47.19v0h0a.18.18,0,0,0,0-.06h0s0,0,0,0a.62.62,0,0,0-.16-.52h0l0,0h0a.63.63,0,0,0-.45-.15,16.74,16.74,0,0,0-5.15,1.19,11.91,11.91,0,0,0-1.38.72.76.76,0,0,0,0-.17h0a.64.64,0,0,0-.23-.53l-.06,0,0,0,0,0h0a.7.7,0,0,0-.43,0,16.16,16.16,0,0,0-4.9,2.19l-.12.08a10.56,10.56,0,0,1-1.14,0c-.3,0-1.29-.1-1.37-.11A9,9,0,0,0,87.83,85.34ZM90.92,87h0s0,0,0,0a9.15,9.15,0,0,1-1.52,4.45.57.57,0,0,0,0,.65.58.58,0,0,0,.6.24,12.54,12.54,0,0,1,3-.18s0,0,0,0,0,0,0,0c-1.31,1-3.86,2.74-6.6,2.75h-.3s0,0,0,0C86.1,93.63,86.42,90.23,90.92,87ZM81.39,97.09a9.19,9.19,0,0,1,1.32-3,14.18,14.18,0,0,1,2.51-2.83h0a.05.05,0,0,1,0,0,9.21,9.21,0,0,1-1.08,4.57.57.57,0,0,0,.07.65.59.59,0,0,0,.63.18,11,11,0,0,1,2.94-.53,0,0,0,0,1,0,0s0,0,0,0a18.28,18.28,0,0,1-1.73,1.52,8.34,8.34,0,0,1-4.63,2h-.2s0,0,0,0A6.82,6.82,0,0,1,81.39,97.09Zm-1.54-.81s0,0,0,0a0,0,0,0,1,0,0,9.25,9.25,0,0,1-.34,4.69.58.58,0,0,0,.2.65.57.57,0,0,0,.68,0,6.78,6.78,0,0,1,2.93-1s0,0,0,0a0,0,0,0,1,0,0c-1.06,1.48-3.26,4-6.1,4.51h0a.05.05,0,0,1,0,0C76.88,103.93,76.3,100.55,79.85,96.28Zm-6.11,9.15a13.84,13.84,0,0,1,1.63-3.4.05.05,0,0,1,0,0l0,0a9.28,9.28,0,0,1,.23,4.7.58.58,0,0,0,.3.63.55.55,0,0,0,.68-.1,5.79,5.79,0,0,1,2.86-1.39s0,0,0,0,0,0,0,0a13.69,13.69,0,0,1-1.16,1.91A8.47,8.47,0,0,1,74,111.2h0s0,0,0,0a7.24,7.24,0,0,1-.59-2.46A9.22,9.22,0,0,1,73.74,105.43Zm-3.3,6.32a13.67,13.67,0,0,1,1.1-3.6s0,0,0,0h0s0,0,0,0a9.27,9.27,0,0,1,.93,4.62.58.58,0,0,0,.33.55.56.56,0,0,0,.64-.08,12.1,12.1,0,0,1,2.75-1.74h0s0,0,0,0a9.12,9.12,0,0,1-.63,1.72,8.91,8.91,0,0,1-4.18,4.13h0l0,0a7,7,0,0,1-.94-2.34A9.09,9.09,0,0,1,70.44,111.75ZM68,118.43a13.87,13.87,0,0,1,.63-3.72l0,0,0,0a9.4,9.4,0,0,1,1.51,4.47.56.56,0,0,0,.4.51.6.6,0,0,0,.63-.18,10.23,10.23,0,0,1,2.5-2.08s0,0,0,0,0,0,0,0a9.82,9.82,0,0,1-.4,1.83,8.44,8.44,0,0,1-3.63,4.61h0s0,0,0,0a6.87,6.87,0,0,1-1.25-2.21A9.07,9.07,0,0,1,68,118.43Zm-1.39,3.15s0,0,0,0,0,0,0,0a9.17,9.17,0,0,1,2,4.24.59.59,0,0,0,1.06.22A12.64,12.64,0,0,1,72,123.71h0a.05.05,0,0,1,0,0,11.22,11.22,0,0,1-.25,1.82,9.24,9.24,0,0,1-2.9,5,0,0,0,0,1,0,0l0,0a6.89,6.89,0,0,1-1.49-2,9.18,9.18,0,0,1-.89-3.18A13.8,13.8,0,0,1,66.63,121.58Zm-1,6.89a.05.05,0,0,1,0,0h0a9.45,9.45,0,0,1,2.25,4.15.58.58,0,0,0,1.09.11,8.54,8.54,0,0,1,1.83-2.41h0s0,0,0,0a14,14,0,0,1-.16,2.07,8.34,8.34,0,0,1-2.45,4.94h-.05a6.89,6.89,0,0,1-1.6-2,9.45,9.45,0,0,1-1-3.14A13.83,13.83,0,0,1,65.6,128.47ZM65,135.7s0,0,0,0h0l.44.44a9.52,9.52,0,0,1,2.07,3.57.58.58,0,0,0,1.13-.09,5,5,0,0,1,1.5-2.6h0l0,0a10.66,10.66,0,0,1,0,3.42,7,7,0,0,1-2,4h-.05C67.16,143.62,64.68,141.22,65,135.7Zm-.28,7h.05l.48.39a9.76,9.76,0,0,1,2.43,3.34.59.59,0,0,0,.53.35h0a.58.58,0,0,0,.54-.36,11.82,11.82,0,0,1,1.67-2.77s0,0,0,0a0,0,0,0,1,0,0,9,9,0,0,1-1.66,7.37h0c-1.15-.67-3.85-2.82-4.09-8.3A.05.05,0,0,1,64.74,142.72Zm.37,7.31s0,0,0-.05h0a9.42,9.42,0,0,1,3.53,3.17.58.58,0,0,0,1-.2h0a12,12,0,0,1,1.2-3.07l0,0s0,0,0,0a8.16,8.16,0,0,1,.63,1.86,7.86,7.86,0,0,1-1,5.75l0,0h0a7.09,7.09,0,0,1-2.19-1.33,9.3,9.3,0,0,1-2-2.62A13.6,13.6,0,0,1,65.11,150Zm1.65,6.78a.09.09,0,0,1,0-.05h0a5.53,5.53,0,0,1,.56.26,9.43,9.43,0,0,1,3.18,2.64.61.61,0,0,0,.62.2.58.58,0,0,0,.42-.48,12.28,12.28,0,0,1,.91-3,0,0,0,0,1,0,0s0,0,0,0a9.07,9.07,0,0,1,.27,7.48,0,0,0,0,1,0,0h0C71.52,163.5,68.36,162.08,66.76,156.81Zm4.09,10a13.68,13.68,0,0,1-1.93-3.23s0,0,0,0a0,0,0,0,1,0,0l.59.19A9.74,9.74,0,0,1,73,166a.57.57,0,0,0,.63.13.6.6,0,0,0,.37-.53,12.35,12.35,0,0,1,.53-3.06s0,0,0,0a0,0,0,0,1,0,0,12.75,12.75,0,0,1,.84,1.8,8.62,8.62,0,0,1,.31,5.57.05.05,0,0,1,0,0h0a7.18,7.18,0,0,1-2.39-.91A9.5,9.5,0,0,1,70.85,166.85Zm1,3.22a0,0,0,0,1,0,0l0,0a9.45,9.45,0,0,1,4.32,2,.58.58,0,0,0,.65.05.59.59,0,0,0,.3-.58,10.4,10.4,0,0,1,.15-3l0,0a0,0,0,0,1,0,0,15.69,15.69,0,0,1,1,1.75,9.13,9.13,0,0,1,1,5.38,0,0,0,0,1,0,0h0a7.29,7.29,0,0,1-2.47-.63,9.27,9.27,0,0,1-2.75-1.89A13.89,13.89,0,0,1,71.84,170.07Zm13.48,11.72a10.93,10.93,0,0,1-.72-3,.08.08,0,0,1,0,0h0c1.36,1.14,3.63,3.53,3.49,6.68,0,0,0,0,0,0a5.48,5.48,0,0,1-.92.07,6.86,6.86,0,0,1-1.39-.14,12.62,12.62,0,0,1-6-3.44,0,0,0,0,1,0,0s0,0,0,0a9.68,9.68,0,0,1,4.72.63.57.57,0,0,0,.63-.13A.6.6,0,0,0,85.32,181.79ZM80,177.58a.57.57,0,0,0,.65,0,.58.58,0,0,0,.23-.62,9.49,9.49,0,0,1-.19-3,0,0,0,0,1,0,0s0,0,0,0c1.11,1.35,3,4,2.79,6.87a0,0,0,0,1,0,0h-.28a7.37,7.37,0,0,1-2.25-.38,9.36,9.36,0,0,1-2.93-1.59,14.21,14.21,0,0,1-2.59-2.74,0,0,0,0,1,0,0s0,0,0,0A9.58,9.58,0,0,1,80,177.58ZM96.8,163.45l-.5,0c-.59-.1-1-.3-1.12-.52s-.18-.43.22-1a3.58,3.58,0,0,1,2.83-1.28h.07a2.68,2.68,0,0,1,.54.11c-.23.19-.43.38-.6.54A4.69,4.69,0,0,0,96.8,163.45Zm3.32,2a2.87,2.87,0,0,1-.56-.14c-1-.32-1.08-.85-1.09-1.06,0-.53.23-1,1-1.72,1.19-1.14,2.13-1.49,2.93-1.09a1.2,1.2,0,0,1,.6.55.5.5,0,0,1,0,.27l-.57.39A5.34,5.34,0,0,0,100.12,165.47Zm4,1.67a3.28,3.28,0,0,1-2.06-.18.84.84,0,0,1-.34-.63c-.08-.87,1-1.76,1.65-2.22,1.54-1.08,2.36-1.45,3.13-.78a.75.75,0,0,1,.33.55,1.7,1.7,0,0,1-.69,1A5.6,5.6,0,0,0,104.17,167.14Zm5.92-1c0,.43-.61.93-.89,1.1h0l-.07,0h0a4.14,4.14,0,0,1-2.65.93,1.17,1.17,0,0,1-.69-.41,5.16,5.16,0,0,1,2.26-2.07c1.14-.66,1.66-.28,1.72-.24C110.12,165.85,110.1,166.07,110.09,166.14Zm13.74-4.06a2,2,0,0,1-1.42.46,17.35,17.35,0,0,0-5.62-5,.87.87,0,0,0-.77,1.57,15.69,15.69,0,0,1,5,4.48,2,2,0,0,1-2.07,1.17,7.8,7.8,0,0,0-1.31-1.91,17.73,17.73,0,0,0-2.56-2.18.88.88,0,0,0-1,1.44,14.87,14.87,0,0,1,2.24,1.88,5.89,5.89,0,0,1,1,1.51,2.25,2.25,0,0,1-.48.68,1.6,1.6,0,0,1-1.44.43,10.36,10.36,0,0,0-1.78-2.72.87.87,0,1,0-1.31,1.16,9,9,0,0,1,1.39,2.06,3.25,3.25,0,0,1-.6.32,3.33,3.33,0,0,1-1.78.17,2.66,2.66,0,0,0,.5-1.26,2.45,2.45,0,0,0-.84-2.08,2.6,2.6,0,0,0-2.36-.59,2.49,2.49,0,0,0-.93-1.65,3,3,0,0,0-3-.61l-.09,0a2.69,2.69,0,0,0-1.46-1.53,3.28,3.28,0,0,0-2.59-.16,3.84,3.84,0,0,0-2.13-.84,5.35,5.35,0,0,0-4,1.47c-5.62,3-12.86,6.27-15.75,7.54a55.91,55.91,0,0,1-3.92-9.32c-.3-.93-.58-1.87-.83-2.82,8.24-.94,14.86-1.91,19.69-2.87,5-1,8.26-2,9.89-3.12v0c1.94-1.36,3.27-2,5.13-1.87.59.05,1.11.11,1.58.19a5,5,0,0,0-1.34.68c-.77.54-1.24.92-1.65,1.26a13.32,13.32,0,0,1-1.3,1,12.13,12.13,0,0,1-1.36.72c-1.12.55-2,1-2.28,1.72h0a2.31,2.31,0,0,0,.37,2.29c.85,1.17,2.23,1.09,3.35,1a9.65,9.65,0,0,0,3.92-1.19c.41-.23.77-.47,1.09-.68a4.49,4.49,0,0,1,1.24-.68h0a5.45,5.45,0,0,1,3.48.35,19.21,19.21,0,0,1,3.44,1.88,22.81,22.81,0,0,1,5,4.65A1.75,1.75,0,0,1,123.83,162.08Zm3.41-.74h0a10,10,0,0,1-1.72-1.54h0l0-.05-.14-.17A24,24,0,0,0,120.2,155c-1.79-1.16-5.11-3.33-8.31-2.46a5.72,5.72,0,0,0-1.82.93c-.31.2-.63.42-1,.62a7.58,7.58,0,0,1-3.15.95c-1,.06-1.56.06-1.82-.3s-.22-.46-.18-.61a8.79,8.79,0,0,1,1.43-.8,15.09,15.09,0,0,0,1.55-.83,15.81,15.81,0,0,0,1.44-1.08c.4-.32.84-.68,1.56-1.18,1-.71,2.07-.73,3.7-.76l.79,0h0l.6,0c1.75-.08,3.31.48,5.68,1.34l2.31.81h0s3.2,1,7.61,2.06A90.69,90.69,0,0,0,145.19,156c-.24.88-.49,1.75-.77,2.6a56.53,56.53,0,0,1-4.09,9.63C137.63,167.12,131.38,164.41,127.24,161.34ZM139.39,182a12.5,12.5,0,0,1-6,3.44,6.79,6.79,0,0,1-1.39.14,6,6,0,0,1-.91-.07,0,0,0,0,1,0,0,7.33,7.33,0,0,1,2-5.18,10.93,10.93,0,0,1,1.5-1.46h0a0,0,0,0,1,0,0,12,12,0,0,1-.75,2.93.59.59,0,0,0,.13.64.57.57,0,0,0,.63.13,9.73,9.73,0,0,1,4.71-.63.08.08,0,0,1,0,0S139.41,182,139.39,182Zm4.43-5.87a13.86,13.86,0,0,1-2.59,2.73,9.36,9.36,0,0,1-2.93,1.59,7.37,7.37,0,0,1-2.25.38h-.28a0,0,0,0,1,0,0,8.7,8.7,0,0,1,1.54-5.29,13.36,13.36,0,0,1,1.22-1.61s0,0,0,0a0,0,0,0,1,0,0,11.76,11.76,0,0,1-.17,3.07.58.58,0,0,0,.89.61,9.48,9.48,0,0,1,4.5-1.52.05.05,0,0,1,0,0A0,0,0,0,1,143.82,176.13Zm3.63-6.06a14.29,14.29,0,0,1-2.29,3,9.4,9.4,0,0,1-2.75,1.89,7.22,7.22,0,0,1-2.48.63h0a0,0,0,0,1,0,0,8.66,8.66,0,0,1,1-5.42,12.4,12.4,0,0,1,1-1.73s0,0,0,0a0,0,0,0,1,0,0,12.32,12.32,0,0,1,.16,3.07.59.59,0,0,0,1,.51,9.45,9.45,0,0,1,4.31-2s0,0,0,0S147.45,170.05,147.45,170.07Zm2.91-6.63a14.19,14.19,0,0,1-2,3.32,9.54,9.54,0,0,1-2.51,2.19,7,7,0,0,1-2.38.9h0s0,0,0,0a8.79,8.79,0,0,1,.33-5.58,13,13,0,0,1,.8-1.74s0,0,0,0,0,0,0,0a13.85,13.85,0,0,1,.54,3,.59.59,0,0,0,1,.36,8.45,8.45,0,0,1,3.46-2.35l.62-.18h0S150.37,163.42,150.36,163.44Zm2.11-6.66a13.64,13.64,0,0,1-1.6,3.39,9.14,9.14,0,0,1-2.27,2.43,6.93,6.93,0,0,1-2.28,1.13,0,0,0,0,0,0,0s0,0,0,0a9.26,9.26,0,0,1-.24-5.61,14.27,14.27,0,0,1,.63-1.95,0,0,0,0,1,0,0h0a0,0,0,0,1,0,0,13.38,13.38,0,0,1,.85,3.12.61.61,0,0,0,.42.49.59.59,0,0,0,.62-.2,9.51,9.51,0,0,1,3.79-2.84h0S152.47,156.76,152.47,156.78Zm.22-3.47a9.31,9.31,0,0,1-1.95,2.68,6.83,6.83,0,0,1-2.12,1.4h0l0,0a9.21,9.21,0,0,1-1-5.65,15.79,15.79,0,0,1,.4-2l0,0h0a13.34,13.34,0,0,1,1.23,3.07.58.58,0,0,0,.47.43.57.57,0,0,0,.59-.26,9.58,9.58,0,0,1,3.41-3.29h.05a.05.05,0,0,1,0,0A13.6,13.6,0,0,1,152.69,153.31Zm1-7a9.16,9.16,0,0,1-1.64,2.87,7.17,7.17,0,0,1-2,1.63h0a8.63,8.63,0,0,1-1.58-5.38,11.56,11.56,0,0,1,.22-2s0,0,0,0l0,0a10.16,10.16,0,0,1,1.51,2.77.58.58,0,0,0,.52.4.56.56,0,0,0,.56-.33,9.41,9.41,0,0,1,3-3.63h0a.05.05,0,0,1,0,0A14,14,0,0,1,153.73,146.35Z"/><path class="cls-2" d="M113,195.6a3.28,3.28,0,0,0,.1-.84A3.94,3.94,0,0,0,113,194a7.77,7.77,0,0,0,4.34-2.19,3.55,3.55,0,0,0,.79-2.76,2.84,2.84,0,0,0-1.29-2.14c-2.1-1.37-6.09-.37-7.22-.05-1.13-.32-5.12-1.32-7.22.05a2.86,2.86,0,0,0-1.29,2.14,3.55,3.55,0,0,0,.8,2.76,7.78,7.78,0,0,0,4.36,2.2,3.84,3.84,0,0,0-.08.76,3.12,3.12,0,0,0,.1.82,14,14,0,0,1-8,3.88,5.79,5.79,0,0,0,1.22,1.47,15.64,15.64,0,0,0,7.54-3.85,3.33,3.33,0,0,0,.39.36c-.27,1-1.38,3.66-5.9,4.8a9.87,9.87,0,0,0,2.72.77,8.05,8.05,0,0,0,4.67-4.87,3,3,0,0,0,.68.07,3.49,3.49,0,0,0,.65-.06,8,8,0,0,0,4.66,4.86,9.85,9.85,0,0,0,2.73-.77c-4.51-1.14-5.63-3.74-5.9-4.78a4.61,4.61,0,0,0,.4-.37,15.65,15.65,0,0,0,7.53,3.84,5.66,5.66,0,0,0,1.21-1.47A14,14,0,0,1,113,195.6Zm-7.87-6a3,3,0,0,0,.16,2.44,4.79,4.79,0,0,1-2.11-1.28,2,2,0,0,1-.43-1.55,1.27,1.27,0,0,1,.56-1,4,4,0,0,1,2.06-.43,9.69,9.69,0,0,1,1.06.06A3.62,3.62,0,0,0,105.08,189.61Zm4.52,7a1.82,1.82,0,1,1,1.83-1.82A1.82,1.82,0,0,1,109.6,196.58Zm2.29-4.4a3.43,3.43,0,0,0-4.59,0,2.1,2.1,0,0,1-.7-2c.61-1.64,2.9-1.66,3-1.66a4.77,4.77,0,0,1,1.31.22,2.43,2.43,0,0,1,1.68,1.44A2.08,2.08,0,0,1,111.89,192.18Zm4-3.92a1.25,1.25,0,0,1,.57,1,2,2,0,0,1-.44,1.55,4.7,4.7,0,0,1-2.1,1.28,3.07,3.07,0,0,0,.16-2.44,3.75,3.75,0,0,0-1.31-1.72A5.25,5.25,0,0,1,115.92,188.26Z"/></g></g></svg>