<svg xmlns="http://www.w3.org/2000/svg" viewBox="0 0 320 320"><defs><style>.cls-1{fill:#5da9ff;}.cls-2{fill:#fff;}</style></defs><g id="Capa_2" data-name="Capa 2"><g id="Capa_1-2" data-name="Capa 1"><rect class="cls-1" width="320" height="320" rx="30"/><polygon class="cls-2" points="111.47 144.32 111.47 176.21 115.97 176.21 115.97 161.52 129.34 161.52 129.34 157.55 115.97 157.55 115.97 148.03 130.79 148.03 130.79 144.32 111.47 144.32"/><path class="cls-2" d="M134.34,152.62l.54,3.43s13.1-4.42,11.57,6.33c0,0-14.37-2.89-14.37,5.87s5.7,8.15,13.74,8l4.69-.64V158.86S150.88,148.65,134.34,152.62Zm12.18,20s-10.28,2.35-10.28-3.52,10.28-3.53,10.28-3.53Z"/><path class="cls-2" d="M156.63,171.62l-.6,3.86s14,4.16,16.62-3.49c0,0,1.14-6.82-3.49-8,0,0-7-3.05-7.59-3.73s-2.41-4.91,2.83-5.15,6.2,1.15,6.2,1.15l1-3.74s-6.93-2.29-11.63,0c0,0-6.81,3.68-2.05,10.3,0,0-.6,1,7.47,3.86a3.87,3.87,0,0,1,3.07,3.67,2.91,2.91,0,0,1-3,2.69S157.11,172.83,156.63,171.62Z"/><path class="cls-2" d="M178.19,145.24v24s-.36,7.19,7.83,7.33a11.13,11.13,0,0,0,6.45-1.13l-.91-3.67s-8.91,3.79-9.09-2.74V155.6h9.15v-3.55h-9.15v-7.73Z"/><path class="cls-2" d="M210.78,144.32h-4.46l-12.77,31.82h5l2.89-8.07h14l3,8.07h5.18Zm-8.19,20,6-14.94,5.78,14.94Z"/><path class="cls-2" d="M238.85,143.86c-12,0-11,.72-11,.72v31.56h4.64v-11.8h6.81s11.26.42,11.26-10.66C250.53,153.68,250.83,143.86,238.85,143.86Zm-6.51,16.65V147.89c14.52-2,13.25,6.31,13.25,6.31C246.19,162,232.34,160.51,232.34,160.51Z"/><rect class="cls-2" x="255.83" y="143.86" width="4.52" height="32.28"/><path class="cls-2" d="M78.2,141.45A18.55,18.55,0,1,0,96.76,160,18.56,18.56,0,0,0,78.2,141.45Zm-1,33.42V163.23H70.77l9.29-18.1v11.64h6.23Z"/></g></g></svg>