<?xml version="1.0" encoding="utf-8"?>
<!-- Generator: Adobe Illustrator 24.1.1, SVG Export Plug-In . SVG Version: 6.00 Build 0)  -->
<svg version="1.1" id="Capa_1" xmlns="http://www.w3.org/2000/svg" xmlns:xlink="http://www.w3.org/1999/xlink" x="0px" y="0px"
	 viewBox="0 0 77.7 18.6" style="enable-background:new 0 0 77.7 18.6;" xml:space="preserve">
<style type="text/css">
	.st0{fill:#F87673;}
</style>
<g id="Capa_2_1_">
	<g id="Capa_1-2">
		<path class="st0" d="M9.5,0C4.3,0,0,4.3,0,9.5c0,4.1,2.6,7.7,6.5,9c0.5,0.1,0.7-0.2,0.7-0.5s0-1,0-1.8C4.5,16.9,4,15.2,4,15.2
			c-0.2-0.6-0.5-1.1-1-1.4C2.1,13.2,3,13.2,3,13.2c0.6,0.1,1.2,0.5,1.5,1c0.5,1,1.7,1.4,2.7,0.8c0,0,0.1,0,0.1,0
			c0-0.5,0.3-0.9,0.6-1.3C5.7,13.5,3.5,12.7,3.5,9c0-1,0.4-1.9,1-2.6C4.2,5.6,4.2,4.8,4.5,4c0,0,0.8-0.3,2.6,1
			c1.6-0.4,3.2-0.4,4.8,0c1.8-1.2,2.6-1,2.6-1c0.3,0.8,0.4,1.7,0.1,2.5c0.6,0.7,1,1.6,1,2.6c0,3.7-2.2,4.5-4.3,4.7
			c0.5,0.5,0.7,1.1,0.6,1.8c0,1.3,0,2.3,0,2.6s0.2,0.6,0.7,0.5c5-1.6,7.8-6.9,6.2-11.9C17.5,2.6,13.8-0.1,9.5,0"/>
		<path class="st0" d="M3.6,13.6c0,0-0.1,0-0.2,0c-0.1,0-0.1-0.1-0.1-0.1s0.1-0.1,0.2,0C3.5,13.4,3.6,13.5,3.6,13.6 M4,14
			c0,0-0.1,0-0.2,0s-0.1-0.2,0-0.2s0.1,0,0.2,0.1S4.1,14,4,14 M4.3,14.5c-0.1,0-0.2,0-0.2-0.1s-0.1-0.2,0-0.2s0.2,0,0.2,0.1
			S4.4,14.5,4.3,14.5 M4.9,15.2c-0.1,0.1-0.2,0-0.2,0S4.5,15,4.6,14.9c0.1-0.1,0.2-0.1,0.3,0C4.9,15,4.9,15.1,4.9,15.2 M5.6,15.4
			c-0.1,0.1-0.2,0.1-0.2,0.1c-0.1,0-0.2-0.1-0.2-0.2s0.1-0.1,0.2-0.1S5.6,15.3,5.6,15.4 M6.4,15.5c0,0.1-0.1,0.1-0.2,0.1
			S6,15.5,6,15.5s0.1-0.1,0.2-0.1S6.4,15.4,6.4,15.5 M7.2,15.5c0,0.1-0.1,0.1-0.2,0.2s-0.2,0-0.2-0.1s0.1-0.2,0.2-0.2
			S7.1,15.3,7.2,15.5"/>
		<path class="st0" d="M33.3,9.3h-4.6c-0.1,0-0.2,0.1-0.2,0.2v2.2c0,0.1,0.1,0.2,0.2,0.2c0,0,0,0,0,0h1.8v2.8
			c-0.5,0.1-1,0.2-1.5,0.1c-1.3,0-3.1-0.5-3.1-4.5s1.9-4.5,3.7-4.5c0.9,0,1.8,0.1,2.6,0.4c0.1,0,0.2-0.1,0.2-0.2c0,0,0,0,0,0L33,3.9
			c0-0.1,0-0.1-0.1-0.2C32.7,3.6,31.7,3,29,3c-3,0-6.2,1.3-6.2,7.5s3.6,7.2,6.6,7.2c1.4,0,2.8-0.3,4-1.1c0.1,0,0.1-0.1,0.1-0.2v-7
			C33.5,9.4,33.4,9.3,33.3,9.3 M56.9,3.8c0-0.1-0.1-0.2-0.2-0.2c0,0,0,0,0,0h-2.6c-0.1,0-0.2,0.1-0.2,0.2c0,0,0,0,0,0l0,0v5h-4v-5
			c0-0.1-0.1-0.2-0.2-0.2c0,0,0,0,0,0h-2.6c-0.1,0-0.2,0.1-0.2,0.2c0,0,0,0,0,0v13.5c0,0.1,0.1,0.2,0.2,0.2h2.6
			c0.1,0,0.2-0.1,0.2-0.2v-5.8h4v5.8c0,0.1,0.1,0.2,0.2,0.2h2.6c0.1,0,0.2-0.1,0.2-0.2L56.9,3.8 M38.2,5.6c0-0.9-0.8-1.7-1.7-1.6
			c-0.9,0-1.7,0.8-1.6,1.7c0,0.9,0.8,1.6,1.7,1.6C37.4,7.2,38.2,6.5,38.2,5.6C38.2,5.6,38.2,5.6,38.2,5.6 M38,14.4V8.2
			C38,8.1,37.9,8,37.8,8h-2.6C35.1,8,35,8.1,35,8.2v8.9c0,0.3,0.2,0.3,0.4,0.3h2.3c0.3,0,0.3-0.1,0.3-0.3V14.4 M66.7,8h-2.6
			c-0.1,0-0.2,0.1-0.2,0.2v6.6c-0.5,0.3-1,0.5-1.6,0.5c-0.9,0-1.2-0.4-1.2-1.3V8.2C61.1,8.1,61,8,60.9,8h-2.6
			c-0.1,0-0.2,0.1-0.2,0.2v6.2c0,2.7,1.5,3.3,3.5,3.3c1.1,0,2.1-0.4,3-0.9c0,0.2,0.1,0.4,0.1,0.5c0,0.1,0.1,0.1,0.2,0.1h1.7
			c0.1,0,0.2-0.1,0.2-0.2v-9C66.8,8.1,66.8,8,66.7,8 M72.7,15.3c-0.5,0-1-0.2-1.5-0.4v-4.3c0.4-0.2,0.9-0.4,1.3-0.4
			c0.9-0.1,1.8,0.2,1.8,2.4S73.8,15.3,72.7,15.3L72.7,15.3z M73.7,7.7c-0.9,0-1.7,0.2-2.4,0.6V3.8c0-0.1-0.1-0.2-0.2-0.2l0,0h-2.6
			c-0.1,0-0.2,0.1-0.2,0.2l0,0v13.5c0,0.1,0.1,0.2,0.2,0.2h1.8c0.1,0,0.2,0,0.2-0.1c0.1-0.2,0.1-0.4,0.1-0.6c0.9,0.7,1.9,1,3,1
			c2.3,0,3.7-1.2,3.7-5.3S75.1,7.7,73.7,7.7 M45.4,8h-1.9V5.4c0-0.1,0-0.2-0.2-0.2h-2.6c-0.1,0-0.2,0-0.2,0.2v2.6l-1.4,0.3
			c-0.1,0-0.2,0.1-0.2,0.2v1.7c0,0.1,0.1,0.2,0.2,0.2h1.3v4c0,3,2.1,3.3,3.5,3.3c0.5,0,1-0.1,1.5-0.3c0.1,0,0.1-0.1,0.1-0.2v-1.8
			c0-0.1-0.1-0.2-0.2-0.2c-0.1,0-0.4,0-0.7,0c-1,0-1.3-0.4-1.3-1v-3.8h1.9c0.1,0,0.2-0.1,0.2-0.2V8.2C45.6,8.1,45.5,8,45.4,8L45.4,8
			"/>
	</g>
</g>
</svg>
