<?xml version="1.0" encoding="utf-8"?>
<!-- Generator: Adobe Illustrator 24.1.1, SVG Export Plug-In . SVG Version: 6.00 Build 0)  -->
<svg version="1.1" id="Capa_1" xmlns="http://www.w3.org/2000/svg" xmlns:xlink="http://www.w3.org/1999/xlink" x="0px" y="0px"
	 viewBox="0 0 291.3 73.8" style="enable-background:new 0 0 291.3 73.8;" xml:space="preserve">
<style type="text/css">
	.st0{fill:#8AC1F9;}
</style>
<g id="Capa_2_1_">
	<g id="Capa_1-2">
		<path class="st0" d="M103,26.3l-9.2,21.2H98l1.9-4.9h9.2l2,4.9h4.3l-9.2-21.2L103,26.3z M101.2,39.4l3.3-8.6l3.3,8.6H101.2z"/>
		<path class="st0" d="M130.4,27.6c-0.8-0.5-1.6-0.8-2.5-1c-1-0.2-2-0.3-3-0.3h-7.1v21.2h3.8v-8.8h2.7c1.1,0,2.2-0.1,3.2-0.2
			c1-0.1,1.9-0.4,2.7-0.9c0.8-0.5,1.4-1.1,1.9-1.9c0.5-1,0.7-2.1,0.7-3.2c0-1-0.2-2-0.6-3C131.7,28.7,131.1,28,130.4,27.6z
			 M128.3,34.1c-0.3,0.4-0.7,0.7-1.2,0.9c-0.5,0.2-1.1,0.3-1.6,0.4c-0.6,0-1.1,0.1-1.7,0.1h-2.3v-6h2.7c0.5,0,1,0,1.6,0.1
			c0.5,0.1,1,0.2,1.5,0.4c0.4,0.2,0.8,0.5,1.1,0.9c0.3,0.5,0.4,1,0.4,1.6C128.9,33,128.7,33.6,128.3,34.1z"/>
		<rect x="136" y="26.3" class="st0" width="3.8" height="21.2"/>
		<path class="st0" d="M166,44c-0.8,0.4-1.6,0.6-2.5,0.6c-1,0-2.1-0.2-3-0.6c-0.9-0.4-1.6-0.9-2.3-1.7c-0.7-0.7-1.2-1.6-1.5-2.5
			c-0.4-1-0.5-2.1-0.5-3.2c0-1,0.2-2,0.5-3c0.3-0.9,0.8-1.7,1.5-2.4c0.6-0.7,1.4-1.2,2.3-1.6c0.9-0.4,2-0.6,3-0.6
			c0.8,0,1.5,0.1,2.2,0.4c0.9,0.4,1.6,1,2.3,1.7l2.9-2.2c-0.9-1.1-2.1-2-3.4-2.6c-1.3-0.5-2.6-0.8-4-0.8c-1.5,0-3.1,0.3-4.5,0.8
			c-1.3,0.5-2.5,1.3-3.5,2.3c-1,1-1.8,2.2-2.3,3.6c-0.6,1.5-0.9,3-0.8,4.6c0,1.6,0.3,3.1,0.8,4.5c1,2.7,3.2,4.8,5.9,5.8
			c1.4,0.5,3,0.8,4.5,0.8c1.5,0,3-0.3,4.4-0.9c1.4-0.6,2.6-1.6,3.5-2.9l-3.2-2.2C167.6,42.8,166.9,43.5,166,44z"/>
		<path class="st0" d="M192.1,28.7c-1-1-2.2-1.7-3.6-2.2c-1.5-0.5-3-0.8-4.6-0.7c-1.5,0-3.1,0.3-4.5,0.8c-1.3,0.5-2.5,1.3-3.5,2.3
			c-1,1-1.8,2.2-2.3,3.6c-0.6,1.5-0.9,3-0.8,4.6c0,1.6,0.3,3.1,0.8,4.5c1,2.7,3.2,4.8,5.9,5.8c1.5,0.5,3,0.8,4.5,0.8
			c1.6,0,3.1-0.3,4.6-0.8c1.3-0.5,2.5-1.3,3.6-2.3c1-1,1.8-2.2,2.3-3.5c0.6-1.4,0.9-3,0.8-4.5c0-1.6-0.3-3.1-0.8-4.6
			C193.9,30.9,193.1,29.7,192.1,28.7z M190.8,39.9c-0.3,0.9-0.8,1.8-1.5,2.5c-0.7,0.7-1.4,1.3-2.3,1.6c-0.9,0.4-2,0.6-3,0.6
			c-1,0-2.1-0.2-3-0.6c-0.9-0.4-1.6-0.9-2.3-1.7c-0.7-0.7-1.2-1.6-1.5-2.5c-0.4-1-0.5-2.1-0.5-3.2c0-1,0.2-2,0.5-3
			c0.3-0.9,0.8-1.7,1.5-2.4c0.6-0.7,1.4-1.2,2.3-1.6c0.9-0.4,2-0.6,3-0.6c1,0,2.1,0.2,3,0.6c0.9,0.4,1.7,0.9,2.3,1.6
			c0.6,0.7,1.1,1.5,1.5,2.4c0.4,1,0.5,2,0.5,3C191.3,37.8,191.2,38.9,190.8,39.9z"/>
		<polygon class="st0" points="206.6,42.3 200.8,26.3 196.4,26.3 204.8,47.5 208,47.5 216.6,26.3 212.5,26.3 		"/>
		<rect x="218.8" y="26.3" class="st0" width="3.8" height="21.2"/>
		<path class="st0" d="M243.1,28.9c-1-0.9-2.2-1.6-3.4-2c-1.3-0.4-2.6-0.6-4-0.6h-8.4v21.3h7.9c1.3,0,2.6-0.2,3.9-0.6
			c1.3-0.4,2.6-1.1,3.6-2c2.4-1.9,3.8-4.9,3.7-8c0-1.6-0.3-3.2-0.9-4.7C245,30.9,244.2,29.8,243.1,28.9z M241.8,40.2
			c-0.4,0.9-1.1,1.6-1.8,2.2c-0.8,0.6-1.8,1-2.8,1.3c-1.1,0.3-2.2,0.4-3.3,0.4H231V29.7h3.4c1.1,0,2.2,0.1,3.2,0.4
			c0.9,0.2,1.8,0.7,2.5,1.3c0.7,0.6,1.3,1.4,1.7,2.2c0.4,1,0.6,2.2,0.6,3.3C242.5,38,242.2,39.1,241.8,40.2z"/>
		<rect x="248.6" y="38.6" class="st0" width="7.4" height="3.1"/>
		<polygon class="st0" points="259,31.6 261.1,34.1 265.1,30.4 265.1,47.5 268.7,47.5 268.7,26.3 265.5,26.3 		"/>
		<path class="st0" d="M290.7,30.1c-0.3-0.9-0.9-1.6-1.6-2.3c-0.7-0.6-1.5-1.1-2.4-1.4c-1-0.3-2-0.5-3-0.5c-1,0-2,0.2-3,0.5
			c-0.9,0.3-1.7,0.8-2.4,1.5c-0.7,0.6-1.2,1.4-1.6,2.3c-0.4,1-0.6,2-0.6,3c0,0.9,0.2,1.8,0.5,2.6c0.3,0.8,0.7,1.5,1.3,2.2
			c0.6,0.6,1.2,1.1,2,1.5c0.8,0.4,1.7,0.6,2.6,0.5c0.4,0,0.7,0,1.1-0.1c0.3,0,0.6-0.1,0.9-0.3l0.1,0.1l-5.1,7.9h4.4l5.4-8.5
			c0.6-0.9,1-1.8,1.4-2.8c0.4-1,0.6-2,0.5-3C291.3,32.1,291.1,31.1,290.7,30.1z M287.2,34.7c-0.8,2-3.2,3-5.2,2.2
			c-2-0.8-3-3.2-2.2-5.2s3.2-3,5.2-2.2c1.5,0.6,2.5,2.1,2.5,3.7C287.5,33.7,287.4,34.2,287.2,34.7z"/>
		<path class="st0" d="M68.4,27.9c-2.4,0.3-4.4,1.9-5.2,4.3L60,32.5l-2.5-0.7c-0.6-0.2-1-0.6-1.2-1.1c-0.7-2-1.6-3.8-2.8-5.5
			c-0.1-0.2-0.1-0.4-0.1-0.6l1-2.7l3.1-3.3c2.3,0.2,4.2-1.5,4.4-3.8s-1.5-4.2-3.8-4.4c-2.3-0.2-4.2,1.5-4.4,3.8c0,0.3,0,0.6,0,0.9
			l-3.1,3.3L48,19.7c-0.2,0.1-0.4,0.1-0.6,0c-3.1-1.9-6.8-2.9-10.4-3l0,0c-0.2,0-0.4-0.1-0.5-0.3l-1.7-2.7l-0.7-3.4
			c2-1.2,3-3.6,2.5-5.8c-0.8-3.2-3.9-5.2-7.1-4.5c-3.1,0.5-5.3,3.4-4.8,6.6c0,0.1,0,0.1,0,0.2c0.5,2.2,2.2,3.9,4.4,4.4l0.7,3.6
			l-0.6,3.5c-2.3,0.9-4.3,2.3-6.1,3.9l-2.4-0.4l-2.4-1.8c-0.2-2.2-2.2-3.9-4.4-3.7c-2.2,0.2-3.9,2.2-3.7,4.4s2.2,3.9,4.4,3.7
			c0.3,0,0.6-0.1,0.9-0.2l2.2,1.6l0.8,1.6c0.2,0.4,0.2,0.8,0,1.2c-1.2,2.7-1.9,5.6-1.9,8.5c0,0.5,0,1.1,0.1,1.7c0,0.5-0.2,1-0.6,1.3
			l-2.7,2l-3.7,1.2c-2.3-2.2-5.9-2.1-8.1,0.2s-2.1,5.9,0.2,8.1c2.3,2.2,5.9,2.1,8.1-0.2c0.9-0.9,1.4-2.1,1.5-3.3l3.5-1.1h3.2
			c0.6,0,1.1,0.3,1.5,0.8c1.2,2,2.8,3.9,4.6,5.4c0.5,0.4,0.7,1,0.6,1.6l-0.5,3.2L22,62.5c-2.2,0.5-3.6,2.7-3.1,4.9
			c0.5,2.2,2.7,3.6,4.9,3.1s3.6-2.7,3.1-4.9c-0.1-0.3-0.2-0.6-0.3-0.9l2.3-4.8l2-2.2c0.5-0.6,1.3-0.8,2.1-0.7c1.3,0.3,2.7,0.4,4,0.4
			l0,0c0.8,0,1.5,0.4,1.9,1.1l1.5,2.5l1,4c-2,2-2,5.2-0.1,7.2c2,2,5.2,2,7.2,0.1s2-5.2,0.1-7.2c-0.6-0.6-1.4-1.1-2.3-1.3l-1-4
			l0.2-3.2c0-0.6,0.4-1.2,0.9-1.5c1.6-0.9,3.1-1.9,4.5-3.2c0.4-0.4,0.9-0.6,1.5-0.5l1.6,0.2l2.5,1.7c0.3,2.2,2.4,3.8,4.7,3.4
			c2.2-0.3,3.8-2.4,3.4-4.7c-0.2-1.1-0.8-2.1-1.7-2.8c-1.1-0.7-2.5-0.9-3.7-0.4l-2.3-1.5l-0.8-1.5c-0.2-0.5-0.3-1-0.1-1.5
			c0.6-1.4,1-2.9,1.2-4.4c0.1-0.6,0.5-1.1,1-1.3l2.3-1.1l3-0.3c1,2.3,3.4,3.7,5.9,3.5c3.4-0.5,5.9-3.6,5.6-7c-0.1-3.4-2.9-6-6.3-5.9
			C68.6,27.9,68.5,27.9,68.4,27.9z M32.3,36.9c-2.2,0-3.9-1.7-3.9-3.9c0-2.2,1.7-3.9,3.9-3.9c2.2,0,3.9,1.7,3.9,3.9
			S34.5,36.9,32.3,36.9C32.3,36.9,32.3,36.9,32.3,36.9z M35.5,47.7c-1.5,0-2.7-1.2-2.7-2.6c0-1.5,1.2-2.7,2.6-2.7
			c1.5,0,2.7,1.2,2.7,2.6c0,0,0,0,0,0C38.1,46.5,37,47.7,35.5,47.7C35.5,47.7,35.5,47.7,35.5,47.7z M43.8,39.4c-1.2,0-2.2-1-2.3-2.2
			c0-1.2,1-2.2,2.2-2.3c1.2,0,2.2,1,2.3,2.2c0,0,0,0,0,0C46,38.4,45,39.3,43.8,39.4z"/>
	</g>
</g>
</svg>
