<svg xmlns="http://www.w3.org/2000/svg" viewBox="0 0 320 320"><defs><style>.cls-1{fill:#5da9ff;}.cls-2{font-size:35.63px;font-family:Roboto-Regular, Roboto;}.cls-2,.cls-3,.cls-4{fill:#fff;}.cls-4{opacity:0.2;isolation:isolate;}</style></defs><g id="Capa_2" data-name="Capa 2"><g id="Capa_1-2" data-name="Capa 1"><rect class="cls-1" width="320" height="320" rx="30"/><text class="cls-2" transform="translate(80.16 255.77) scale(1.01 1)">Metabase</text><ellipse id="Oval-7" class="cls-3" cx="108.08" cy="94.14" rx="9.27" ry="9.42"/><ellipse id="Oval-7-2" data-name="Oval-7" class="cls-3" cx="108.08" cy="120.52" rx="9.27" ry="9.42"/><ellipse id="Oval-7-3" data-name="Oval-7" class="cls-4" cx="134.04" cy="94.14" rx="9.27" ry="9.42"/><ellipse id="Oval-7-4" data-name="Oval-7" class="cls-3" cx="134.04" cy="120.77" rx="9.27" ry="9.42"/><ellipse id="Oval-8" class="cls-4" cx="160" cy="94.14" rx="9.27" ry="9.42"/><ellipse id="Oval-8-2" data-name="Oval-8" class="cls-4" cx="160" cy="64" rx="9.27" ry="9.42"/><ellipse id="Oval-8-3" data-name="Oval-8" class="cls-4" cx="160" cy="120.77" rx="9.27" ry="9.42"/><ellipse id="Oval-9" class="cls-4" cx="185.96" cy="94.14" rx="9.27" ry="9.42"/><ellipse id="Oval-9-2" data-name="Oval-9" class="cls-3" cx="211.92" cy="94.14" rx="9.27" ry="9.42"/><ellipse id="Oval-9-3" data-name="Oval-9" class="cls-3" cx="185.96" cy="120.77" rx="9.27" ry="9.42"/><ellipse id="Oval-9-4" data-name="Oval-9" class="cls-3" cx="211.92" cy="120.77" rx="9.27" ry="9.42"/><ellipse id="Oval-13" class="cls-3" cx="108.08" cy="146.89" rx="9.27" ry="9.42"/><ellipse id="Oval-12" class="cls-4" cx="134.04" cy="147.15" rx="9.27" ry="9.42"/><ellipse id="Oval-11" class="cls-3" cx="160" cy="147.15" rx="9.27" ry="9.42"/><ellipse id="Oval-10" class="cls-4" cx="185.96" cy="147.15" rx="9.27" ry="9.42"/><ellipse id="Oval-10-2" data-name="Oval-10" class="cls-3" cx="211.92" cy="147.15" rx="9.27" ry="9.42"/><ellipse id="Oval-17" class="cls-3" cx="108.08" cy="173.27" rx="9.27" ry="9.42"/><ellipse id="Oval-16" class="cls-4" cx="134.04" cy="173.52" rx="9.27" ry="9.42"/><ellipse id="Oval-15" class="cls-4" cx="160" cy="173.52" rx="9.27" ry="9.42"/><ellipse id="Oval-15-2" data-name="Oval-15" class="cls-4" cx="160" cy="199.9" rx="9.27" ry="9.42"/><ellipse id="Oval-14" class="cls-4" cx="185.96" cy="173.52" rx="9.27" ry="9.42"/><ellipse id="Oval-14-2" data-name="Oval-14" class="cls-3" cx="211.92" cy="173.52" rx="9.27" ry="9.42"/></g></g></svg>