<svg xmlns="http://www.w3.org/2000/svg" viewBox="0 0 241.42 250.98"><defs><style>.cls-1{fill:#a8cfef;opacity:0.65;}.cls-2{fill:#282828;}</style></defs><g id="Capa_2" data-name="Capa 2"><g id="Capa_1-2" data-name="Capa 1"><path class="cls-1" d="M195.34,150.65c11.23-50.78-5.63-77.06-28.2-90.54.08-13.81-5.42-30.94-27.88-44-.56-.32-1.13-.62-1.71-.89C126,9.78,13.39-40.53,4.83,78A166.58,166.58,0,0,0,4.43,95C.54,107-1,122,.69,140.74c11.37,124.72,128.48,74.9,130.45,74.11l.06,0C157.72,214.85,184.26,200.71,195.34,150.65Z"/><path class="cls-1" d="M237.85,176.3c11.23-50.79-5.62-77.06-28.2-90.55.08-13.8-5.41-30.93-27.87-43.95-.56-.32-1.13-.62-1.72-.89C168.51,35.42,55.9-14.88,47.34,103.62a169.48,169.48,0,0,0-.4,17.07c-3.88,11.94-5.45,26.93-3.74,45.69,11.37,124.73,128.48,74.91,130.46,74.11l.05,0C200.23,240.5,226.78,226.36,237.85,176.3Z"/><polygon class="cls-2" points="101.83 59.87 100.77 62.95 100.77 60.71 99.74 60.17 94.79 60.17 94.79 59.23 93.13 58.18 93.13 58.93 92.45 60.17 91.21 60.17 90.48 60.56 90.48 61.61 89.53 62.82 90.42 63.39 89.51 67.81 84.62 71.09 85.9 73.78 84.96 73.78 85.6 77.66 85.18 78.75 86.15 80.48 86 81.74 84.36 81.74 81.49 88.04 81.61 90.04 80.45 91.09 81.71 94.12 81.5 95.44 79.53 96.25 79.53 99 79.9 99 79.4 100.64 80.72 102.06 80.4 103.19 81.71 106.09 81.44 107.23 81.61 108.29 82.58 108.29 82.63 111.51 81.17 116.25 79.86 116.25 79.86 116.58 81.09 116.58 81.74 118.06 81.49 119.51 80.87 120.06 80.38 120.7 78.87 121.5 78.87 126.78 79.86 129.43 79.86 130.65 79.01 131.41 78.93 134.83 78.41 134.83 78.26 135.07 78.91 136.05 78.26 139.35 78.59 140.26 78.38 142.68 78.87 144.56 78.87 145.45 78.41 145.45 78.26 147.15 78.61 149.19 80.07 149.27 80.05 149.79 79.45 149.93 79.58 150.62 79.97 150.96 79.75 151.98 80.47 152.5 79.97 153.24 80.12 154.31 82.16 154.43 81.96 155.87 79.48 156.39 79.53 156.81 81.61 157.28 81.96 158.33 80.84 159.17 81.29 164.1 80.55 165.25 80.69 166.53 79.2 167.33 79.2 168.74 79.08 169.49 79.74 170.38 80.08 171.59 79.57 171.89 79.64 173.85 78.53 174.25 78.43 175.51 77.25 175.93 77.54 179.26 78.31 180.54 78.73 182.28 79.31 182.28 79.6 181.59 81.12 181.26 81.17 182.8 81.69 183.96 81.46 185.92 83.35 187.26 90.02 187.26 91.46 188.25 92.4 188.25 89.48 185.11 89.48 182.73 89.29 181.74 90.54 179.21 93.06 177.3 93.22 173.63 98.43 168.34 98.04 167.85 98.54 165.44 97.93 164.97 95.45 165 93.96 162.89 93.17 162.62 92.8 160.48 94.61 157.52 97.11 156.73 98.35 156.73 99 153.81 99.79 153.23 99.44 150.47 100.31 148.74 102.84 147.66 100.68 146.88 101.2 145.76 102.37 145.73 102.69 146.72 103.77 146.67 104.08 146.22 104.08 143.74 103.8 143.42 102.45 144.09 103.27 144.49 103.31 145.18 101.91 145.13 101.57 144.44 99.86 143.15 99.69 138.44 101.25 138.56 104.3 140.14 105.49 140.14 108.42 138.92 108.92 138.02 108.22 136.75 108.62 133.82 109.06 133.2 109.06 131.84 108.74 131.25 108.26 129.66 109.45 129.63 110.8 130.67 116.96 130.5 124.09 127.87 124.59 126.19 127.81 122.52 127.49 119.81 126.58 120.23 124.66 119.02 124.66 117.85 126.16 116.27 124.48 114.01 122.38 112.99 122.54 107.11 123.63 106.2 123.41 101.56 123.99 100.91 123.99 99.4 125.18 95.68 134.75 85.41 141.25 81.94 141.25 80.36 141.97 78.15 141.57 77.65 141.24 75.49 139.24 75.87 138.65 74.75 138.3 75.87 138.23 77.7 137.31 79.71 134.51 81.77 133.77 82.96 132.05 82.44 131.16 83.43 130.32 82.76 127.81 82.74 125.93 82.14 122.66 82.02 122.66 81.55 123.95 80.83 124.65 77.83 125.97 76.81 127.45 74.33 126.17 72.2 125.01 72.17 122.16 71.03 118.27 67.81 113.95 66.67 113.65 65.45 113.23 65.43 110.73 63.44 108.92 60.89 107.85 60.59 106.83 58.98 102.22 59 101.83 59.87"/><polygon class="cls-2" points="91.73 190.74 92.44 200.68 97.16 200.68 97.72 200.99 98.2 200.39 98.91 200.28 99.32 199.54 99.78 200.16 100.77 199.13 100.77 198.46 99.93 198.65 98.95 198.85 94.48 196.04 93.89 196.04 94.04 195.09 93.48 194.32 93.44 193.19 92.7 193.02 92.21 192.15 92.66 192.14 91.73 190.74"/><polygon class="cls-2" points="102.68 197.91 103.45 197.37 104.75 197.37 104.75 198.69 103.71 198.69 103.26 198.69 101.76 198.69 101.76 197.87 102.68 197.91"/></g></g></svg>